<svg xmlns="http://www.w3.org/2000/svg" width="1380" height="720" viewBox="0 0 1380 720" role="img" aria-labelledby="figure-title figure-description">
<title id="figure-title">Size policy spends overdraw to create simpler runs</title>
<desc id="figure-description">Two panels reach the same final blue-and-amber pixel grid. Fast policy paints exact masks; size policy first fills the blue span and then repaints amber pixels, favoring repeatable SIXEL runs.</desc>
<defs ><marker id="arrow-blue" viewBox="0 0 10 10" refX="9" refY="5" markerWidth="7" markerHeight="7" orient="auto-start-reverse"><path d="M 0 0 L 10 5 L 0 10 z" fill="context-stroke"/></marker><marker id="arrow-magenta" viewBox="0 0 10 10" refX="9" refY="5" markerWidth="7" markerHeight="7" orient="auto-start-reverse"><path d="M 0 0 L 10 5 L 0 10 z" fill="context-stroke"/></marker><marker id="arrow-gold" viewBox="0 0 10 10" refX="9" refY="5" markerWidth="7" markerHeight="7" orient="auto-start-reverse"><path d="M 0 0 L 10 5 L 0 10 z" fill="context-stroke"/></marker><filter id="card-shadow" x="-10%" y="-10%" width="120%" height="130%"><feDropShadow dx="0" dy="5" stdDeviation="7" flood-color="#172033" flood-opacity="0.10"/></filter></defs>
<rect x="0.0" y="0.0" width="1380.0" height="720.0" fill="#F8FAFC" stroke="none"/>
<text x="55.0" y="62.0" fill="#172033" font-size="38" font-weight="800" font-family="system-ui, -apple-system, sans-serif" text-anchor="start">Size policy spends overdraw to create simpler runs</text>
<text x="55.0" y="100.0" fill="#556176" font-size="20" font-weight="500" font-family="system-ui, -apple-system, sans-serif" text-anchor="start">Later colors repair the temporary fill, so the final indexed image is unchanged.</text>
<rect x="55.0" y="170.0" width="610.0" height="420.0" rx="18.0" fill="#FFFFFF" stroke="#2563EB" stroke-width="2.0"/><rect x="55.0" y="170.0" width="8.0" height="420.0" rx="4.0" fill="#2563EB" stroke="none"/><text x="83.0" y="212.0" fill="#2563EB" font-size="23" font-weight="750" font-family="system-ui, -apple-system, sans-serif" text-anchor="start">fast / auto: preserve every mask</text><text x="93.0" y="250.0" fill="#2563EB" font-size="18" font-weight="700" font-family="system-ui, -apple-system, sans-serif" text-anchor="start">first blue pass</text><rect x="93.0" y="275.0" width="22.0" height="22.0" rx="3.0" fill="#2563EB" stroke="#FFFFFF" stroke-width="1.0"/><rect x="118.0" y="275.0" width="22.0" height="22.0" rx="3.0" fill="#2563EB" stroke="#FFFFFF" stroke-width="1.0"/><rect x="143.0" y="275.0" width="22.0" height="22.0" rx="3.0" fill="#2563EB" stroke="#FFFFFF" stroke-width="1.0"/><rect x="168.0" y="275.0" width="22.0" height="22.0" rx="3.0" fill="#D97706" stroke="#FFFFFF" stroke-width="1.0"/><rect x="193.0" y="275.0" width="22.0" height="22.0" rx="3.0" fill="#D97706" stroke="#FFFFFF" stroke-width="1.0"/><rect x="218.0" y="275.0" width="22.0" height="22.0" rx="3.0" fill="#D97706" stroke="#FFFFFF" stroke-width="1.0"/><rect x="243.0" y="275.0" width="22.0" height="22.0" rx="3.0" fill="#D97706" stroke="#FFFFFF" stroke-width="1.0"/><rect x="268.0" y="275.0" width="22.0" height="22.0" rx="3.0" fill="#2563EB" stroke="#FFFFFF" stroke-width="1.0"/><rect x="293.0" y="275.0" width="22.0" height="22.0" rx="3.0" fill="#2563EB" stroke="#FFFFFF" stroke-width="1.0"/><rect x="318.0" y="275.0" width="22.0" height="22.0" rx="3.0" fill="#2563EB" stroke="#FFFFFF" stroke-width="1.0"/><rect x="93.0" y="300.0" width="22.0" height="22.0" rx="3.0" fill="#2563EB" stroke="#FFFFFF" stroke-width="1.0"/><rect x="118.0" y="300.0" width="22.0" height="22.0" rx="3.0" fill="#2563EB" stroke="#FFFFFF" stroke-width="1.0"/><rect x="143.0" y="300.0" width="22.0" height="22.0" rx="3.0" fill="#D97706" stroke="#FFFFFF" stroke-width="1.0"/><rect x="168.0" y="300.0" width="22.0" height="22.0" rx="3.0" fill="#D97706" stroke="#FFFFFF" stroke-width="1.0"/><rect x="193.0" y="300.0" width="22.0" height="22.0" rx="3.0" fill="#D97706" stroke="#FFFFFF" stroke-width="1.0"/><rect x="218.0" y="300.0" width="22.0" height="22.0" rx="3.0" fill="#D97706" stroke="#FFFFFF" stroke-width="1.0"/><rect x="243.0" y="300.0" width="22.0" height="22.0" rx="3.0" fill="#D97706" stroke="#FFFFFF" stroke-width="1.0"/><rect x="268.0" y="300.0" width="22.0" height="22.0" rx="3.0" fill="#2563EB" stroke="#FFFFFF" stroke-width="1.0"/><rect x="293.0" y="300.0" width="22.0" height="22.0" rx="3.0" fill="#2563EB" stroke="#FFFFFF" stroke-width="1.0"/><rect x="318.0" y="300.0" width="22.0" height="22.0" rx="3.0" fill="#2563EB" stroke="#FFFFFF" stroke-width="1.0"/><rect x="93.0" y="325.0" width="22.0" height="22.0" rx="3.0" fill="#2563EB" stroke="#FFFFFF" stroke-width="1.0"/><rect x="118.0" y="325.0" width="22.0" height="22.0" rx="3.0" fill="#2563EB" stroke="#FFFFFF" stroke-width="1.0"/><rect x="143.0" y="325.0" width="22.0" height="22.0" rx="3.0" fill="#2563EB" stroke="#FFFFFF" stroke-width="1.0"/><rect x="168.0" y="325.0" width="22.0" height="22.0" rx="3.0" fill="#2563EB" stroke="#FFFFFF" stroke-width="1.0"/><rect x="193.0" y="325.0" width="22.0" height="22.0" rx="3.0" fill="#D97706" stroke="#FFFFFF" stroke-width="1.0"/><rect x="218.0" y="325.0" width="22.0" height="22.0" rx="3.0" fill="#D97706" stroke="#FFFFFF" stroke-width="1.0"/><rect x="243.0" y="325.0" width="22.0" height="22.0" rx="3.0" fill="#2563EB" stroke="#FFFFFF" stroke-width="1.0"/><rect x="268.0" y="325.0" width="22.0" height="22.0" rx="3.0" fill="#2563EB" stroke="#FFFFFF" stroke-width="1.0"/><rect x="293.0" y="325.0" width="22.0" height="22.0" rx="3.0" fill="#2563EB" stroke="#FFFFFF" stroke-width="1.0"/><rect x="318.0" y="325.0" width="22.0" height="22.0" rx="3.0" fill="#2563EB" stroke="#FFFFFF" stroke-width="1.0"/><rect x="93.0" y="350.0" width="22.0" height="22.0" rx="3.0" fill="#2563EB" stroke="#FFFFFF" stroke-width="1.0"/><rect x="118.0" y="350.0" width="22.0" height="22.0" rx="3.0" fill="#2563EB" stroke="#FFFFFF" stroke-width="1.0"/><rect x="143.0" y="350.0" width="22.0" height="22.0" rx="3.0" fill="#2563EB" stroke="#FFFFFF" stroke-width="1.0"/><rect x="168.0" y="350.0" width="22.0" height="22.0" rx="3.0" fill="#2563EB" stroke="#FFFFFF" stroke-width="1.0"/><rect x="193.0" y="350.0" width="22.0" height="22.0" rx="3.0" fill="#D97706" stroke="#FFFFFF" stroke-width="1.0"/><rect x="218.0" y="350.0" width="22.0" height="22.0" rx="3.0" fill="#D97706" stroke="#FFFFFF" stroke-width="1.0"/><rect x="243.0" y="350.0" width="22.0" height="22.0" rx="3.0" fill="#2563EB" stroke="#FFFFFF" stroke-width="1.0"/><rect x="268.0" y="350.0" width="22.0" height="22.0" rx="3.0" fill="#2563EB" stroke="#FFFFFF" stroke-width="1.0"/><rect x="293.0" y="350.0" width="22.0" height="22.0" rx="3.0" fill="#2563EB" stroke="#FFFFFF" stroke-width="1.0"/><rect x="318.0" y="350.0" width="22.0" height="22.0" rx="3.0" fill="#2563EB" stroke="#FFFFFF" stroke-width="1.0"/><rect x="93.0" y="375.0" width="22.0" height="22.0" rx="3.0" fill="#2563EB" stroke="#FFFFFF" stroke-width="1.0"/><rect x="118.0" y="375.0" width="22.0" height="22.0" rx="3.0" fill="#2563EB" stroke="#FFFFFF" stroke-width="1.0"/><rect x="143.0" y="375.0" width="22.0" height="22.0" rx="3.0" fill="#D97706" stroke="#FFFFFF" stroke-width="1.0"/><rect x="168.0" y="375.0" width="22.0" height="22.0" rx="3.0" fill="#D97706" stroke="#FFFFFF" stroke-width="1.0"/><rect x="193.0" y="375.0" width="22.0" height="22.0" rx="3.0" fill="#D97706" stroke="#FFFFFF" stroke-width="1.0"/><rect x="218.0" y="375.0" width="22.0" height="22.0" rx="3.0" fill="#D97706" stroke="#FFFFFF" stroke-width="1.0"/><rect x="243.0" y="375.0" width="22.0" height="22.0" rx="3.0" fill="#D97706" stroke="#FFFFFF" stroke-width="1.0"/><rect x="268.0" y="375.0" width="22.0" height="22.0" rx="3.0" fill="#2563EB" stroke="#FFFFFF" stroke-width="1.0"/><rect x="293.0" y="375.0" width="22.0" height="22.0" rx="3.0" fill="#2563EB" stroke="#FFFFFF" stroke-width="1.0"/><rect x="318.0" y="375.0" width="22.0" height="22.0" rx="3.0" fill="#2563EB" stroke="#FFFFFF" stroke-width="1.0"/><rect x="93.0" y="400.0" width="22.0" height="22.0" rx="3.0" fill="#2563EB" stroke="#FFFFFF" stroke-width="1.0"/><rect x="118.0" y="400.0" width="22.0" height="22.0" rx="3.0" fill="#2563EB" stroke="#FFFFFF" stroke-width="1.0"/><rect x="143.0" y="400.0" width="22.0" height="22.0" rx="3.0" fill="#2563EB" stroke="#FFFFFF" stroke-width="1.0"/><rect x="168.0" y="400.0" width="22.0" height="22.0" rx="3.0" fill="#D97706" stroke="#FFFFFF" stroke-width="1.0"/><rect x="193.0" y="400.0" width="22.0" height="22.0" rx="3.0" fill="#D97706" stroke="#FFFFFF" stroke-width="1.0"/><rect x="218.0" y="400.0" width="22.0" height="22.0" rx="3.0" fill="#D97706" stroke="#FFFFFF" stroke-width="1.0"/><rect x="243.0" y="400.0" width="22.0" height="22.0" rx="3.0" fill="#D97706" stroke="#FFFFFF" stroke-width="1.0"/><rect x="268.0" y="400.0" width="22.0" height="22.0" rx="3.0" fill="#2563EB" stroke="#FFFFFF" stroke-width="1.0"/><rect x="293.0" y="400.0" width="22.0" height="22.0" rx="3.0" fill="#2563EB" stroke="#FFFFFF" stroke-width="1.0"/><rect x="318.0" y="400.0" width="22.0" height="22.0" rx="3.0" fill="#2563EB" stroke="#FFFFFF" stroke-width="1.0"/><text x="385.0" y="250.0" fill="#D97706" font-size="18" font-weight="700" font-family="system-ui, -apple-system, sans-serif" text-anchor="start">repaint amber</text><rect x="385.0" y="275.0" width="22.0" height="22.0" rx="3.0" fill="#FFFFFF" stroke="#CBD5E1" stroke-width="1.0"/><rect x="410.0" y="275.0" width="22.0" height="22.0" rx="3.0" fill="#FFFFFF" stroke="#CBD5E1" stroke-width="1.0"/><rect x="435.0" y="275.0" width="22.0" height="22.0" rx="3.0" fill="#FFFFFF" stroke="#CBD5E1" stroke-width="1.0"/><rect x="460.0" y="275.0" width="22.0" height="22.0" rx="3.0" fill="#334155" stroke="#CBD5E1" stroke-width="1.0"/><rect x="485.0" y="275.0" width="22.0" height="22.0" rx="3.0" fill="#334155" stroke="#CBD5E1" stroke-width="1.0"/><rect x="510.0" y="275.0" width="22.0" height="22.0" rx="3.0" fill="#334155" stroke="#CBD5E1" stroke-width="1.0"/><rect x="535.0" y="275.0" width="22.0" height="22.0" rx="3.0" fill="#334155" stroke="#CBD5E1" stroke-width="1.0"/><rect x="560.0" y="275.0" width="22.0" height="22.0" rx="3.0" fill="#FFFFFF" stroke="#CBD5E1" stroke-width="1.0"/><rect x="585.0" y="275.0" width="22.0" height="22.0" rx="3.0" fill="#FFFFFF" stroke="#CBD5E1" stroke-width="1.0"/><rect x="610.0" y="275.0" width="22.0" height="22.0" rx="3.0" fill="#FFFFFF" stroke="#CBD5E1" stroke-width="1.0"/><rect x="385.0" y="300.0" width="22.0" height="22.0" rx="3.0" fill="#FFFFFF" stroke="#CBD5E1" stroke-width="1.0"/><rect x="410.0" y="300.0" width="22.0" height="22.0" rx="3.0" fill="#FFFFFF" stroke="#CBD5E1" stroke-width="1.0"/><rect x="435.0" y="300.0" width="22.0" height="22.0" rx="3.0" fill="#334155" stroke="#CBD5E1" stroke-width="1.0"/><rect x="460.0" y="300.0" width="22.0" height="22.0" rx="3.0" fill="#334155" stroke="#CBD5E1" stroke-width="1.0"/><rect x="485.0" y="300.0" width="22.0" height="22.0" rx="3.0" fill="#334155" stroke="#CBD5E1" stroke-width="1.0"/><rect x="510.0" y="300.0" width="22.0" height="22.0" rx="3.0" fill="#334155" stroke="#CBD5E1" stroke-width="1.0"/><rect x="535.0" y="300.0" width="22.0" height="22.0" rx="3.0" fill="#334155" stroke="#CBD5E1" stroke-width="1.0"/><rect x="560.0" y="300.0" width="22.0" height="22.0" rx="3.0" fill="#FFFFFF" stroke="#CBD5E1" stroke-width="1.0"/><rect x="585.0" y="300.0" width="22.0" height="22.0" rx="3.0" fill="#FFFFFF" stroke="#CBD5E1" stroke-width="1.0"/><rect x="610.0" y="300.0" width="22.0" height="22.0" rx="3.0" fill="#FFFFFF" stroke="#CBD5E1" stroke-width="1.0"/><rect x="385.0" y="325.0" width="22.0" height="22.0" rx="3.0" fill="#FFFFFF" stroke="#CBD5E1" stroke-width="1.0"/><rect x="410.0" y="325.0" width="22.0" height="22.0" rx="3.0" fill="#FFFFFF" stroke="#CBD5E1" stroke-width="1.0"/><rect x="435.0" y="325.0" width="22.0" height="22.0" rx="3.0" fill="#FFFFFF" stroke="#CBD5E1" stroke-width="1.0"/><rect x="460.0" y="325.0" width="22.0" height="22.0" rx="3.0" fill="#FFFFFF" stroke="#CBD5E1" stroke-width="1.0"/><rect x="485.0" y="325.0" width="22.0" height="22.0" rx="3.0" fill="#334155" stroke="#CBD5E1" stroke-width="1.0"/><rect x="510.0" y="325.0" width="22.0" height="22.0" rx="3.0" fill="#334155" stroke="#CBD5E1" stroke-width="1.0"/><rect x="535.0" y="325.0" width="22.0" height="22.0" rx="3.0" fill="#FFFFFF" stroke="#CBD5E1" stroke-width="1.0"/><rect x="560.0" y="325.0" width="22.0" height="22.0" rx="3.0" fill="#FFFFFF" stroke="#CBD5E1" stroke-width="1.0"/><rect x="585.0" y="325.0" width="22.0" height="22.0" rx="3.0" fill="#FFFFFF" stroke="#CBD5E1" stroke-width="1.0"/><rect x="610.0" y="325.0" width="22.0" height="22.0" rx="3.0" fill="#FFFFFF" stroke="#CBD5E1" stroke-width="1.0"/><rect x="385.0" y="350.0" width="22.0" height="22.0" rx="3.0" fill="#FFFFFF" stroke="#CBD5E1" stroke-width="1.0"/><rect x="410.0" y="350.0" width="22.0" height="22.0" rx="3.0" fill="#FFFFFF" stroke="#CBD5E1" stroke-width="1.0"/><rect x="435.0" y="350.0" width="22.0" height="22.0" rx="3.0" fill="#FFFFFF" stroke="#CBD5E1" stroke-width="1.0"/><rect x="460.0" y="350.0" width="22.0" height="22.0" rx="3.0" fill="#FFFFFF" stroke="#CBD5E1" stroke-width="1.0"/><rect x="485.0" y="350.0" width="22.0" height="22.0" rx="3.0" fill="#334155" stroke="#CBD5E1" stroke-width="1.0"/><rect x="510.0" y="350.0" width="22.0" height="22.0" rx="3.0" fill="#334155" stroke="#CBD5E1" stroke-width="1.0"/><rect x="535.0" y="350.0" width="22.0" height="22.0" rx="3.0" fill="#FFFFFF" stroke="#CBD5E1" stroke-width="1.0"/><rect x="560.0" y="350.0" width="22.0" height="22.0" rx="3.0" fill="#FFFFFF" stroke="#CBD5E1" stroke-width="1.0"/><rect x="585.0" y="350.0" width="22.0" height="22.0" rx="3.0" fill="#FFFFFF" stroke="#CBD5E1" stroke-width="1.0"/><rect x="610.0" y="350.0" width="22.0" height="22.0" rx="3.0" fill="#FFFFFF" stroke="#CBD5E1" stroke-width="1.0"/><rect x="385.0" y="375.0" width="22.0" height="22.0" rx="3.0" fill="#FFFFFF" stroke="#CBD5E1" stroke-width="1.0"/><rect x="410.0" y="375.0" width="22.0" height="22.0" rx="3.0" fill="#FFFFFF" stroke="#CBD5E1" stroke-width="1.0"/><rect x="435.0" y="375.0" width="22.0" height="22.0" rx="3.0" fill="#334155" stroke="#CBD5E1" stroke-width="1.0"/><rect x="460.0" y="375.0" width="22.0" height="22.0" rx="3.0" fill="#334155" stroke="#CBD5E1" stroke-width="1.0"/><rect x="485.0" y="375.0" width="22.0" height="22.0" rx="3.0" fill="#334155" stroke="#CBD5E1" stroke-width="1.0"/><rect x="510.0" y="375.0" width="22.0" height="22.0" rx="3.0" fill="#334155" stroke="#CBD5E1" stroke-width="1.0"/><rect x="535.0" y="375.0" width="22.0" height="22.0" rx="3.0" fill="#334155" stroke="#CBD5E1" stroke-width="1.0"/><rect x="560.0" y="375.0" width="22.0" height="22.0" rx="3.0" fill="#FFFFFF" stroke="#CBD5E1" stroke-width="1.0"/><rect x="585.0" y="375.0" width="22.0" height="22.0" rx="3.0" fill="#FFFFFF" stroke="#CBD5E1" stroke-width="1.0"/><rect x="610.0" y="375.0" width="22.0" height="22.0" rx="3.0" fill="#FFFFFF" stroke="#CBD5E1" stroke-width="1.0"/><rect x="385.0" y="400.0" width="22.0" height="22.0" rx="3.0" fill="#FFFFFF" stroke="#CBD5E1" stroke-width="1.0"/><rect x="410.0" y="400.0" width="22.0" height="22.0" rx="3.0" fill="#FFFFFF" stroke="#CBD5E1" stroke-width="1.0"/><rect x="435.0" y="400.0" width="22.0" height="22.0" rx="3.0" fill="#FFFFFF" stroke="#CBD5E1" stroke-width="1.0"/><rect x="460.0" y="400.0" width="22.0" height="22.0" rx="3.0" fill="#334155" stroke="#CBD5E1" stroke-width="1.0"/><rect x="485.0" y="400.0" width="22.0" height="22.0" rx="3.0" fill="#334155" stroke="#CBD5E1" stroke-width="1.0"/><rect x="510.0" y="400.0" width="22.0" height="22.0" rx="3.0" fill="#334155" stroke="#CBD5E1" stroke-width="1.0"/><rect x="535.0" y="400.0" width="22.0" height="22.0" rx="3.0" fill="#334155" stroke="#CBD5E1" stroke-width="1.0"/><rect x="560.0" y="400.0" width="22.0" height="22.0" rx="3.0" fill="#FFFFFF" stroke="#CBD5E1" stroke-width="1.0"/><rect x="585.0" y="400.0" width="22.0" height="22.0" rx="3.0" fill="#FFFFFF" stroke="#CBD5E1" stroke-width="1.0"/><rect x="610.0" y="400.0" width="22.0" height="22.0" rx="3.0" fill="#FFFFFF" stroke="#CBD5E1" stroke-width="1.0"/><line x1="331.0" y1="350.0" x2="370.0" y2="350.0" stroke="#2563EB" stroke-width="4.0" stroke-linecap="round" marker-end="url(#arrow-blue)"/><text x="93.0" y="470.0" fill="#0F766E" font-size="18" font-weight="700" font-family="system-ui, -apple-system, sans-serif" text-anchor="start">result</text><rect x="93.0" y="455.0" width="17.0" height="17.0" rx="3.0" fill="#2563EB" stroke="#FFFFFF" stroke-width="1.0"/><rect x="113.0" y="455.0" width="17.0" height="17.0" rx="3.0" fill="#2563EB" stroke="#FFFFFF" stroke-width="1.0"/><rect x="133.0" y="455.0" width="17.0" height="17.0" rx="3.0" fill="#2563EB" stroke="#FFFFFF" stroke-width="1.0"/><rect x="153.0" y="455.0" width="17.0" height="17.0" rx="3.0" fill="#D97706" stroke="#FFFFFF" stroke-width="1.0"/><rect x="173.0" y="455.0" width="17.0" height="17.0" rx="3.0" fill="#D97706" stroke="#FFFFFF" stroke-width="1.0"/><rect x="193.0" y="455.0" width="17.0" height="17.0" rx="3.0" fill="#D97706" stroke="#FFFFFF" stroke-width="1.0"/><rect x="213.0" y="455.0" width="17.0" height="17.0" rx="3.0" fill="#D97706" stroke="#FFFFFF" stroke-width="1.0"/><rect x="233.0" y="455.0" width="17.0" height="17.0" rx="3.0" fill="#2563EB" stroke="#FFFFFF" stroke-width="1.0"/><rect x="253.0" y="455.0" width="17.0" height="17.0" rx="3.0" fill="#2563EB" stroke="#FFFFFF" stroke-width="1.0"/><rect x="273.0" y="455.0" width="17.0" height="17.0" rx="3.0" fill="#2563EB" stroke="#FFFFFF" stroke-width="1.0"/><rect x="93.0" y="475.0" width="17.0" height="17.0" rx="3.0" fill="#2563EB" stroke="#FFFFFF" stroke-width="1.0"/><rect x="113.0" y="475.0" width="17.0" height="17.0" rx="3.0" fill="#2563EB" stroke="#FFFFFF" stroke-width="1.0"/><rect x="133.0" y="475.0" width="17.0" height="17.0" rx="3.0" fill="#D97706" stroke="#FFFFFF" stroke-width="1.0"/><rect x="153.0" y="475.0" width="17.0" height="17.0" rx="3.0" fill="#D97706" stroke="#FFFFFF" stroke-width="1.0"/><rect x="173.0" y="475.0" width="17.0" height="17.0" rx="3.0" fill="#D97706" stroke="#FFFFFF" stroke-width="1.0"/><rect x="193.0" y="475.0" width="17.0" height="17.0" rx="3.0" fill="#D97706" stroke="#FFFFFF" stroke-width="1.0"/><rect x="213.0" y="475.0" width="17.0" height="17.0" rx="3.0" fill="#D97706" stroke="#FFFFFF" stroke-width="1.0"/><rect x="233.0" y="475.0" width="17.0" height="17.0" rx="3.0" fill="#2563EB" stroke="#FFFFFF" stroke-width="1.0"/><rect x="253.0" y="475.0" width="17.0" height="17.0" rx="3.0" fill="#2563EB" stroke="#FFFFFF" stroke-width="1.0"/><rect x="273.0" y="475.0" width="17.0" height="17.0" rx="3.0" fill="#2563EB" stroke="#FFFFFF" stroke-width="1.0"/><rect x="93.0" y="495.0" width="17.0" height="17.0" rx="3.0" fill="#2563EB" stroke="#FFFFFF" stroke-width="1.0"/><rect x="113.0" y="495.0" width="17.0" height="17.0" rx="3.0" fill="#2563EB" stroke="#FFFFFF" stroke-width="1.0"/><rect x="133.0" y="495.0" width="17.0" height="17.0" rx="3.0" fill="#2563EB" stroke="#FFFFFF" stroke-width="1.0"/><rect x="153.0" y="495.0" width="17.0" height="17.0" rx="3.0" fill="#2563EB" stroke="#FFFFFF" stroke-width="1.0"/><rect x="173.0" y="495.0" width="17.0" height="17.0" rx="3.0" fill="#D97706" stroke="#FFFFFF" stroke-width="1.0"/><rect x="193.0" y="495.0" width="17.0" height="17.0" rx="3.0" fill="#D97706" stroke="#FFFFFF" stroke-width="1.0"/><rect x="213.0" y="495.0" width="17.0" height="17.0" rx="3.0" fill="#2563EB" stroke="#FFFFFF" stroke-width="1.0"/><rect x="233.0" y="495.0" width="17.0" height="17.0" rx="3.0" fill="#2563EB" stroke="#FFFFFF" stroke-width="1.0"/><rect x="253.0" y="495.0" width="17.0" height="17.0" rx="3.0" fill="#2563EB" stroke="#FFFFFF" stroke-width="1.0"/><rect x="273.0" y="495.0" width="17.0" height="17.0" rx="3.0" fill="#2563EB" stroke="#FFFFFF" stroke-width="1.0"/><rect x="93.0" y="515.0" width="17.0" height="17.0" rx="3.0" fill="#2563EB" stroke="#FFFFFF" stroke-width="1.0"/><rect x="113.0" y="515.0" width="17.0" height="17.0" rx="3.0" fill="#2563EB" stroke="#FFFFFF" stroke-width="1.0"/><rect x="133.0" y="515.0" width="17.0" height="17.0" rx="3.0" fill="#2563EB" stroke="#FFFFFF" stroke-width="1.0"/><rect x="153.0" y="515.0" width="17.0" height="17.0" rx="3.0" fill="#2563EB" stroke="#FFFFFF" stroke-width="1.0"/><rect x="173.0" y="515.0" width="17.0" height="17.0" rx="3.0" fill="#D97706" stroke="#FFFFFF" stroke-width="1.0"/><rect x="193.0" y="515.0" width="17.0" height="17.0" rx="3.0" fill="#D97706" stroke="#FFFFFF" stroke-width="1.0"/><rect x="213.0" y="515.0" width="17.0" height="17.0" rx="3.0" fill="#2563EB" stroke="#FFFFFF" stroke-width="1.0"/><rect x="233.0" y="515.0" width="17.0" height="17.0" rx="3.0" fill="#2563EB" stroke="#FFFFFF" stroke-width="1.0"/><rect x="253.0" y="515.0" width="17.0" height="17.0" rx="3.0" fill="#2563EB" stroke="#FFFFFF" stroke-width="1.0"/><rect x="273.0" y="515.0" width="17.0" height="17.0" rx="3.0" fill="#2563EB" stroke="#FFFFFF" stroke-width="1.0"/><rect x="93.0" y="535.0" width="17.0" height="17.0" rx="3.0" fill="#2563EB" stroke="#FFFFFF" stroke-width="1.0"/><rect x="113.0" y="535.0" width="17.0" height="17.0" rx="3.0" fill="#2563EB" stroke="#FFFFFF" stroke-width="1.0"/><rect x="133.0" y="535.0" width="17.0" height="17.0" rx="3.0" fill="#D97706" stroke="#FFFFFF" stroke-width="1.0"/><rect x="153.0" y="535.0" width="17.0" height="17.0" rx="3.0" fill="#D97706" stroke="#FFFFFF" stroke-width="1.0"/><rect x="173.0" y="535.0" width="17.0" height="17.0" rx="3.0" fill="#D97706" stroke="#FFFFFF" stroke-width="1.0"/><rect x="193.0" y="535.0" width="17.0" height="17.0" rx="3.0" fill="#D97706" stroke="#FFFFFF" stroke-width="1.0"/><rect x="213.0" y="535.0" width="17.0" height="17.0" rx="3.0" fill="#D97706" stroke="#FFFFFF" stroke-width="1.0"/><rect x="233.0" y="535.0" width="17.0" height="17.0" rx="3.0" fill="#2563EB" stroke="#FFFFFF" stroke-width="1.0"/><rect x="253.0" y="535.0" width="17.0" height="17.0" rx="3.0" fill="#2563EB" stroke="#FFFFFF" stroke-width="1.0"/><rect x="273.0" y="535.0" width="17.0" height="17.0" rx="3.0" fill="#2563EB" stroke="#FFFFFF" stroke-width="1.0"/><rect x="93.0" y="555.0" width="17.0" height="17.0" rx="3.0" fill="#2563EB" stroke="#FFFFFF" stroke-width="1.0"/><rect x="113.0" y="555.0" width="17.0" height="17.0" rx="3.0" fill="#2563EB" stroke="#FFFFFF" stroke-width="1.0"/><rect x="133.0" y="555.0" width="17.0" height="17.0" rx="3.0" fill="#2563EB" stroke="#FFFFFF" stroke-width="1.0"/><rect x="153.0" y="555.0" width="17.0" height="17.0" rx="3.0" fill="#D97706" stroke="#FFFFFF" stroke-width="1.0"/><rect x="173.0" y="555.0" width="17.0" height="17.0" rx="3.0" fill="#D97706" stroke="#FFFFFF" stroke-width="1.0"/><rect x="193.0" y="555.0" width="17.0" height="17.0" rx="3.0" fill="#D97706" stroke="#FFFFFF" stroke-width="1.0"/><rect x="213.0" y="555.0" width="17.0" height="17.0" rx="3.0" fill="#D97706" stroke="#FFFFFF" stroke-width="1.0"/><rect x="233.0" y="555.0" width="17.0" height="17.0" rx="3.0" fill="#2563EB" stroke="#FFFFFF" stroke-width="1.0"/><rect x="253.0" y="555.0" width="17.0" height="17.0" rx="3.0" fill="#2563EB" stroke="#FFFFFF" stroke-width="1.0"/><rect x="273.0" y="555.0" width="17.0" height="17.0" rx="3.0" fill="#2563EB" stroke="#FFFFFF" stroke-width="1.0"/><text x="385.0" y="505.0" fill="#2563EB" font-size="17" font-weight="700" font-family="system-ui, -apple-system, sans-serif" text-anchor="start">Never paint a pixel</text><text x="385.0" y="533.0" fill="#556176" font-size="17" font-weight="500" font-family="system-ui, -apple-system, sans-serif" text-anchor="start">that belongs to another color.</text>
<rect x="715.0" y="170.0" width="610.0" height="420.0" rx="18.0" fill="#FEF3C7" stroke="#D97706" stroke-width="2.0"/><rect x="715.0" y="170.0" width="8.0" height="420.0" rx="4.0" fill="#D97706" stroke="none"/><text x="743.0" y="212.0" fill="#D97706" font-size="23" font-weight="750" font-family="system-ui, -apple-system, sans-serif" text-anchor="start">size: fill first, then repaint</text><text x="753.0" y="250.0" fill="#2563EB" font-size="18" font-weight="700" font-family="system-ui, -apple-system, sans-serif" text-anchor="start">first blue pass</text><rect x="753.0" y="275.0" width="22.0" height="22.0" rx="3.0" fill="#2563EB" stroke="#FFFFFF" stroke-width="1.0"/><rect x="778.0" y="275.0" width="22.0" height="22.0" rx="3.0" fill="#2563EB" stroke="#FFFFFF" stroke-width="1.0"/><rect x="803.0" y="275.0" width="22.0" height="22.0" rx="3.0" fill="#2563EB" stroke="#FFFFFF" stroke-width="1.0"/><rect x="828.0" y="275.0" width="22.0" height="22.0" rx="3.0" fill="#2563EB" stroke="#FFFFFF" stroke-width="1.0"/><rect x="853.0" y="275.0" width="22.0" height="22.0" rx="3.0" fill="#2563EB" stroke="#FFFFFF" stroke-width="1.0"/><rect x="878.0" y="275.0" width="22.0" height="22.0" rx="3.0" fill="#2563EB" stroke="#FFFFFF" stroke-width="1.0"/><rect x="903.0" y="275.0" width="22.0" height="22.0" rx="3.0" fill="#2563EB" stroke="#FFFFFF" stroke-width="1.0"/><rect x="928.0" y="275.0" width="22.0" height="22.0" rx="3.0" fill="#2563EB" stroke="#FFFFFF" stroke-width="1.0"/><rect x="953.0" y="275.0" width="22.0" height="22.0" rx="3.0" fill="#2563EB" stroke="#FFFFFF" stroke-width="1.0"/><rect x="978.0" y="275.0" width="22.0" height="22.0" rx="3.0" fill="#2563EB" stroke="#FFFFFF" stroke-width="1.0"/><rect x="753.0" y="300.0" width="22.0" height="22.0" rx="3.0" fill="#2563EB" stroke="#FFFFFF" stroke-width="1.0"/><rect x="778.0" y="300.0" width="22.0" height="22.0" rx="3.0" fill="#2563EB" stroke="#FFFFFF" stroke-width="1.0"/><rect x="803.0" y="300.0" width="22.0" height="22.0" rx="3.0" fill="#2563EB" stroke="#FFFFFF" stroke-width="1.0"/><rect x="828.0" y="300.0" width="22.0" height="22.0" rx="3.0" fill="#2563EB" stroke="#FFFFFF" stroke-width="1.0"/><rect x="853.0" y="300.0" width="22.0" height="22.0" rx="3.0" fill="#2563EB" stroke="#FFFFFF" stroke-width="1.0"/><rect x="878.0" y="300.0" width="22.0" height="22.0" rx="3.0" fill="#2563EB" stroke="#FFFFFF" stroke-width="1.0"/><rect x="903.0" y="300.0" width="22.0" height="22.0" rx="3.0" fill="#2563EB" stroke="#FFFFFF" stroke-width="1.0"/><rect x="928.0" y="300.0" width="22.0" height="22.0" rx="3.0" fill="#2563EB" stroke="#FFFFFF" stroke-width="1.0"/><rect x="953.0" y="300.0" width="22.0" height="22.0" rx="3.0" fill="#2563EB" stroke="#FFFFFF" stroke-width="1.0"/><rect x="978.0" y="300.0" width="22.0" height="22.0" rx="3.0" fill="#2563EB" stroke="#FFFFFF" stroke-width="1.0"/><rect x="753.0" y="325.0" width="22.0" height="22.0" rx="3.0" fill="#2563EB" stroke="#FFFFFF" stroke-width="1.0"/><rect x="778.0" y="325.0" width="22.0" height="22.0" rx="3.0" fill="#2563EB" stroke="#FFFFFF" stroke-width="1.0"/><rect x="803.0" y="325.0" width="22.0" height="22.0" rx="3.0" fill="#2563EB" stroke="#FFFFFF" stroke-width="1.0"/><rect x="828.0" y="325.0" width="22.0" height="22.0" rx="3.0" fill="#2563EB" stroke="#FFFFFF" stroke-width="1.0"/><rect x="853.0" y="325.0" width="22.0" height="22.0" rx="3.0" fill="#2563EB" stroke="#FFFFFF" stroke-width="1.0"/><rect x="878.0" y="325.0" width="22.0" height="22.0" rx="3.0" fill="#2563EB" stroke="#FFFFFF" stroke-width="1.0"/><rect x="903.0" y="325.0" width="22.0" height="22.0" rx="3.0" fill="#2563EB" stroke="#FFFFFF" stroke-width="1.0"/><rect x="928.0" y="325.0" width="22.0" height="22.0" rx="3.0" fill="#2563EB" stroke="#FFFFFF" stroke-width="1.0"/><rect x="953.0" y="325.0" width="22.0" height="22.0" rx="3.0" fill="#2563EB" stroke="#FFFFFF" stroke-width="1.0"/><rect x="978.0" y="325.0" width="22.0" height="22.0" rx="3.0" fill="#2563EB" stroke="#FFFFFF" stroke-width="1.0"/><rect x="753.0" y="350.0" width="22.0" height="22.0" rx="3.0" fill="#2563EB" stroke="#FFFFFF" stroke-width="1.0"/><rect x="778.0" y="350.0" width="22.0" height="22.0" rx="3.0" fill="#2563EB" stroke="#FFFFFF" stroke-width="1.0"/><rect x="803.0" y="350.0" width="22.0" height="22.0" rx="3.0" fill="#2563EB" stroke="#FFFFFF" stroke-width="1.0"/><rect x="828.0" y="350.0" width="22.0" height="22.0" rx="3.0" fill="#2563EB" stroke="#FFFFFF" stroke-width="1.0"/><rect x="853.0" y="350.0" width="22.0" height="22.0" rx="3.0" fill="#2563EB" stroke="#FFFFFF" stroke-width="1.0"/><rect x="878.0" y="350.0" width="22.0" height="22.0" rx="3.0" fill="#2563EB" stroke="#FFFFFF" stroke-width="1.0"/><rect x="903.0" y="350.0" width="22.0" height="22.0" rx="3.0" fill="#2563EB" stroke="#FFFFFF" stroke-width="1.0"/><rect x="928.0" y="350.0" width="22.0" height="22.0" rx="3.0" fill="#2563EB" stroke="#FFFFFF" stroke-width="1.0"/><rect x="953.0" y="350.0" width="22.0" height="22.0" rx="3.0" fill="#2563EB" stroke="#FFFFFF" stroke-width="1.0"/><rect x="978.0" y="350.0" width="22.0" height="22.0" rx="3.0" fill="#2563EB" stroke="#FFFFFF" stroke-width="1.0"/><rect x="753.0" y="375.0" width="22.0" height="22.0" rx="3.0" fill="#2563EB" stroke="#FFFFFF" stroke-width="1.0"/><rect x="778.0" y="375.0" width="22.0" height="22.0" rx="3.0" fill="#2563EB" stroke="#FFFFFF" stroke-width="1.0"/><rect x="803.0" y="375.0" width="22.0" height="22.0" rx="3.0" fill="#2563EB" stroke="#FFFFFF" stroke-width="1.0"/><rect x="828.0" y="375.0" width="22.0" height="22.0" rx="3.0" fill="#2563EB" stroke="#FFFFFF" stroke-width="1.0"/><rect x="853.0" y="375.0" width="22.0" height="22.0" rx="3.0" fill="#2563EB" stroke="#FFFFFF" stroke-width="1.0"/><rect x="878.0" y="375.0" width="22.0" height="22.0" rx="3.0" fill="#2563EB" stroke="#FFFFFF" stroke-width="1.0"/><rect x="903.0" y="375.0" width="22.0" height="22.0" rx="3.0" fill="#2563EB" stroke="#FFFFFF" stroke-width="1.0"/><rect x="928.0" y="375.0" width="22.0" height="22.0" rx="3.0" fill="#2563EB" stroke="#FFFFFF" stroke-width="1.0"/><rect x="953.0" y="375.0" width="22.0" height="22.0" rx="3.0" fill="#2563EB" stroke="#FFFFFF" stroke-width="1.0"/><rect x="978.0" y="375.0" width="22.0" height="22.0" rx="3.0" fill="#2563EB" stroke="#FFFFFF" stroke-width="1.0"/><rect x="753.0" y="400.0" width="22.0" height="22.0" rx="3.0" fill="#2563EB" stroke="#FFFFFF" stroke-width="1.0"/><rect x="778.0" y="400.0" width="22.0" height="22.0" rx="3.0" fill="#2563EB" stroke="#FFFFFF" stroke-width="1.0"/><rect x="803.0" y="400.0" width="22.0" height="22.0" rx="3.0" fill="#2563EB" stroke="#FFFFFF" stroke-width="1.0"/><rect x="828.0" y="400.0" width="22.0" height="22.0" rx="3.0" fill="#2563EB" stroke="#FFFFFF" stroke-width="1.0"/><rect x="853.0" y="400.0" width="22.0" height="22.0" rx="3.0" fill="#2563EB" stroke="#FFFFFF" stroke-width="1.0"/><rect x="878.0" y="400.0" width="22.0" height="22.0" rx="3.0" fill="#2563EB" stroke="#FFFFFF" stroke-width="1.0"/><rect x="903.0" y="400.0" width="22.0" height="22.0" rx="3.0" fill="#2563EB" stroke="#FFFFFF" stroke-width="1.0"/><rect x="928.0" y="400.0" width="22.0" height="22.0" rx="3.0" fill="#2563EB" stroke="#FFFFFF" stroke-width="1.0"/><rect x="953.0" y="400.0" width="22.0" height="22.0" rx="3.0" fill="#2563EB" stroke="#FFFFFF" stroke-width="1.0"/><rect x="978.0" y="400.0" width="22.0" height="22.0" rx="3.0" fill="#2563EB" stroke="#FFFFFF" stroke-width="1.0"/><text x="1045.0" y="250.0" fill="#D97706" font-size="18" font-weight="700" font-family="system-ui, -apple-system, sans-serif" text-anchor="start">repaint amber</text><rect x="1045.0" y="275.0" width="22.0" height="22.0" rx="3.0" fill="#FFFFFF" stroke="#CBD5E1" stroke-width="1.0"/><rect x="1070.0" y="275.0" width="22.0" height="22.0" rx="3.0" fill="#FFFFFF" stroke="#CBD5E1" stroke-width="1.0"/><rect x="1095.0" y="275.0" width="22.0" height="22.0" rx="3.0" fill="#FFFFFF" stroke="#CBD5E1" stroke-width="1.0"/><rect x="1120.0" y="275.0" width="22.0" height="22.0" rx="3.0" fill="#334155" stroke="#CBD5E1" stroke-width="1.0"/><rect x="1145.0" y="275.0" width="22.0" height="22.0" rx="3.0" fill="#334155" stroke="#CBD5E1" stroke-width="1.0"/><rect x="1170.0" y="275.0" width="22.0" height="22.0" rx="3.0" fill="#334155" stroke="#CBD5E1" stroke-width="1.0"/><rect x="1195.0" y="275.0" width="22.0" height="22.0" rx="3.0" fill="#334155" stroke="#CBD5E1" stroke-width="1.0"/><rect x="1220.0" y="275.0" width="22.0" height="22.0" rx="3.0" fill="#FFFFFF" stroke="#CBD5E1" stroke-width="1.0"/><rect x="1245.0" y="275.0" width="22.0" height="22.0" rx="3.0" fill="#FFFFFF" stroke="#CBD5E1" stroke-width="1.0"/><rect x="1270.0" y="275.0" width="22.0" height="22.0" rx="3.0" fill="#FFFFFF" stroke="#CBD5E1" stroke-width="1.0"/><rect x="1045.0" y="300.0" width="22.0" height="22.0" rx="3.0" fill="#FFFFFF" stroke="#CBD5E1" stroke-width="1.0"/><rect x="1070.0" y="300.0" width="22.0" height="22.0" rx="3.0" fill="#FFFFFF" stroke="#CBD5E1" stroke-width="1.0"/><rect x="1095.0" y="300.0" width="22.0" height="22.0" rx="3.0" fill="#334155" stroke="#CBD5E1" stroke-width="1.0"/><rect x="1120.0" y="300.0" width="22.0" height="22.0" rx="3.0" fill="#334155" stroke="#CBD5E1" stroke-width="1.0"/><rect x="1145.0" y="300.0" width="22.0" height="22.0" rx="3.0" fill="#334155" stroke="#CBD5E1" stroke-width="1.0"/><rect x="1170.0" y="300.0" width="22.0" height="22.0" rx="3.0" fill="#334155" stroke="#CBD5E1" stroke-width="1.0"/><rect x="1195.0" y="300.0" width="22.0" height="22.0" rx="3.0" fill="#334155" stroke="#CBD5E1" stroke-width="1.0"/><rect x="1220.0" y="300.0" width="22.0" height="22.0" rx="3.0" fill="#FFFFFF" stroke="#CBD5E1" stroke-width="1.0"/><rect x="1245.0" y="300.0" width="22.0" height="22.0" rx="3.0" fill="#FFFFFF" stroke="#CBD5E1" stroke-width="1.0"/><rect x="1270.0" y="300.0" width="22.0" height="22.0" rx="3.0" fill="#FFFFFF" stroke="#CBD5E1" stroke-width="1.0"/><rect x="1045.0" y="325.0" width="22.0" height="22.0" rx="3.0" fill="#FFFFFF" stroke="#CBD5E1" stroke-width="1.0"/><rect x="1070.0" y="325.0" width="22.0" height="22.0" rx="3.0" fill="#FFFFFF" stroke="#CBD5E1" stroke-width="1.0"/><rect x="1095.0" y="325.0" width="22.0" height="22.0" rx="3.0" fill="#FFFFFF" stroke="#CBD5E1" stroke-width="1.0"/><rect x="1120.0" y="325.0" width="22.0" height="22.0" rx="3.0" fill="#FFFFFF" stroke="#CBD5E1" stroke-width="1.0"/><rect x="1145.0" y="325.0" width="22.0" height="22.0" rx="3.0" fill="#334155" stroke="#CBD5E1" stroke-width="1.0"/><rect x="1170.0" y="325.0" width="22.0" height="22.0" rx="3.0" fill="#334155" stroke="#CBD5E1" stroke-width="1.0"/><rect x="1195.0" y="325.0" width="22.0" height="22.0" rx="3.0" fill="#FFFFFF" stroke="#CBD5E1" stroke-width="1.0"/><rect x="1220.0" y="325.0" width="22.0" height="22.0" rx="3.0" fill="#FFFFFF" stroke="#CBD5E1" stroke-width="1.0"/><rect x="1245.0" y="325.0" width="22.0" height="22.0" rx="3.0" fill="#FFFFFF" stroke="#CBD5E1" stroke-width="1.0"/><rect x="1270.0" y="325.0" width="22.0" height="22.0" rx="3.0" fill="#FFFFFF" stroke="#CBD5E1" stroke-width="1.0"/><rect x="1045.0" y="350.0" width="22.0" height="22.0" rx="3.0" fill="#FFFFFF" stroke="#CBD5E1" stroke-width="1.0"/><rect x="1070.0" y="350.0" width="22.0" height="22.0" rx="3.0" fill="#FFFFFF" stroke="#CBD5E1" stroke-width="1.0"/><rect x="1095.0" y="350.0" width="22.0" height="22.0" rx="3.0" fill="#FFFFFF" stroke="#CBD5E1" stroke-width="1.0"/><rect x="1120.0" y="350.0" width="22.0" height="22.0" rx="3.0" fill="#FFFFFF" stroke="#CBD5E1" stroke-width="1.0"/><rect x="1145.0" y="350.0" width="22.0" height="22.0" rx="3.0" fill="#334155" stroke="#CBD5E1" stroke-width="1.0"/><rect x="1170.0" y="350.0" width="22.0" height="22.0" rx="3.0" fill="#334155" stroke="#CBD5E1" stroke-width="1.0"/><rect x="1195.0" y="350.0" width="22.0" height="22.0" rx="3.0" fill="#FFFFFF" stroke="#CBD5E1" stroke-width="1.0"/><rect x="1220.0" y="350.0" width="22.0" height="22.0" rx="3.0" fill="#FFFFFF" stroke="#CBD5E1" stroke-width="1.0"/><rect x="1245.0" y="350.0" width="22.0" height="22.0" rx="3.0" fill="#FFFFFF" stroke="#CBD5E1" stroke-width="1.0"/><rect x="1270.0" y="350.0" width="22.0" height="22.0" rx="3.0" fill="#FFFFFF" stroke="#CBD5E1" stroke-width="1.0"/><rect x="1045.0" y="375.0" width="22.0" height="22.0" rx="3.0" fill="#FFFFFF" stroke="#CBD5E1" stroke-width="1.0"/><rect x="1070.0" y="375.0" width="22.0" height="22.0" rx="3.0" fill="#FFFFFF" stroke="#CBD5E1" stroke-width="1.0"/><rect x="1095.0" y="375.0" width="22.0" height="22.0" rx="3.0" fill="#334155" stroke="#CBD5E1" stroke-width="1.0"/><rect x="1120.0" y="375.0" width="22.0" height="22.0" rx="3.0" fill="#334155" stroke="#CBD5E1" stroke-width="1.0"/><rect x="1145.0" y="375.0" width="22.0" height="22.0" rx="3.0" fill="#334155" stroke="#CBD5E1" stroke-width="1.0"/><rect x="1170.0" y="375.0" width="22.0" height="22.0" rx="3.0" fill="#334155" stroke="#CBD5E1" stroke-width="1.0"/><rect x="1195.0" y="375.0" width="22.0" height="22.0" rx="3.0" fill="#334155" stroke="#CBD5E1" stroke-width="1.0"/><rect x="1220.0" y="375.0" width="22.0" height="22.0" rx="3.0" fill="#FFFFFF" stroke="#CBD5E1" stroke-width="1.0"/><rect x="1245.0" y="375.0" width="22.0" height="22.0" rx="3.0" fill="#FFFFFF" stroke="#CBD5E1" stroke-width="1.0"/><rect x="1270.0" y="375.0" width="22.0" height="22.0" rx="3.0" fill="#FFFFFF" stroke="#CBD5E1" stroke-width="1.0"/><rect x="1045.0" y="400.0" width="22.0" height="22.0" rx="3.0" fill="#FFFFFF" stroke="#CBD5E1" stroke-width="1.0"/><rect x="1070.0" y="400.0" width="22.0" height="22.0" rx="3.0" fill="#FFFFFF" stroke="#CBD5E1" stroke-width="1.0"/><rect x="1095.0" y="400.0" width="22.0" height="22.0" rx="3.0" fill="#FFFFFF" stroke="#CBD5E1" stroke-width="1.0"/><rect x="1120.0" y="400.0" width="22.0" height="22.0" rx="3.0" fill="#334155" stroke="#CBD5E1" stroke-width="1.0"/><rect x="1145.0" y="400.0" width="22.0" height="22.0" rx="3.0" fill="#334155" stroke="#CBD5E1" stroke-width="1.0"/><rect x="1170.0" y="400.0" width="22.0" height="22.0" rx="3.0" fill="#334155" stroke="#CBD5E1" stroke-width="1.0"/><rect x="1195.0" y="400.0" width="22.0" height="22.0" rx="3.0" fill="#334155" stroke="#CBD5E1" stroke-width="1.0"/><rect x="1220.0" y="400.0" width="22.0" height="22.0" rx="3.0" fill="#FFFFFF" stroke="#CBD5E1" stroke-width="1.0"/><rect x="1245.0" y="400.0" width="22.0" height="22.0" rx="3.0" fill="#FFFFFF" stroke="#CBD5E1" stroke-width="1.0"/><rect x="1270.0" y="400.0" width="22.0" height="22.0" rx="3.0" fill="#FFFFFF" stroke="#CBD5E1" stroke-width="1.0"/><line x1="991.0" y1="350.0" x2="1030.0" y2="350.0" stroke="#D97706" stroke-width="4.0" stroke-linecap="round" marker-end="url(#arrow-blue)"/><text x="753.0" y="470.0" fill="#0F766E" font-size="18" font-weight="700" font-family="system-ui, -apple-system, sans-serif" text-anchor="start">result</text><rect x="753.0" y="455.0" width="17.0" height="17.0" rx="3.0" fill="#2563EB" stroke="#FFFFFF" stroke-width="1.0"/><rect x="773.0" y="455.0" width="17.0" height="17.0" rx="3.0" fill="#2563EB" stroke="#FFFFFF" stroke-width="1.0"/><rect x="793.0" y="455.0" width="17.0" height="17.0" rx="3.0" fill="#2563EB" stroke="#FFFFFF" stroke-width="1.0"/><rect x="813.0" y="455.0" width="17.0" height="17.0" rx="3.0" fill="#D97706" stroke="#FFFFFF" stroke-width="1.0"/><rect x="833.0" y="455.0" width="17.0" height="17.0" rx="3.0" fill="#D97706" stroke="#FFFFFF" stroke-width="1.0"/><rect x="853.0" y="455.0" width="17.0" height="17.0" rx="3.0" fill="#D97706" stroke="#FFFFFF" stroke-width="1.0"/><rect x="873.0" y="455.0" width="17.0" height="17.0" rx="3.0" fill="#D97706" stroke="#FFFFFF" stroke-width="1.0"/><rect x="893.0" y="455.0" width="17.0" height="17.0" rx="3.0" fill="#2563EB" stroke="#FFFFFF" stroke-width="1.0"/><rect x="913.0" y="455.0" width="17.0" height="17.0" rx="3.0" fill="#2563EB" stroke="#FFFFFF" stroke-width="1.0"/><rect x="933.0" y="455.0" width="17.0" height="17.0" rx="3.0" fill="#2563EB" stroke="#FFFFFF" stroke-width="1.0"/><rect x="753.0" y="475.0" width="17.0" height="17.0" rx="3.0" fill="#2563EB" stroke="#FFFFFF" stroke-width="1.0"/><rect x="773.0" y="475.0" width="17.0" height="17.0" rx="3.0" fill="#2563EB" stroke="#FFFFFF" stroke-width="1.0"/><rect x="793.0" y="475.0" width="17.0" height="17.0" rx="3.0" fill="#D97706" stroke="#FFFFFF" stroke-width="1.0"/><rect x="813.0" y="475.0" width="17.0" height="17.0" rx="3.0" fill="#D97706" stroke="#FFFFFF" stroke-width="1.0"/><rect x="833.0" y="475.0" width="17.0" height="17.0" rx="3.0" fill="#D97706" stroke="#FFFFFF" stroke-width="1.0"/><rect x="853.0" y="475.0" width="17.0" height="17.0" rx="3.0" fill="#D97706" stroke="#FFFFFF" stroke-width="1.0"/><rect x="873.0" y="475.0" width="17.0" height="17.0" rx="3.0" fill="#D97706" stroke="#FFFFFF" stroke-width="1.0"/><rect x="893.0" y="475.0" width="17.0" height="17.0" rx="3.0" fill="#2563EB" stroke="#FFFFFF" stroke-width="1.0"/><rect x="913.0" y="475.0" width="17.0" height="17.0" rx="3.0" fill="#2563EB" stroke="#FFFFFF" stroke-width="1.0"/><rect x="933.0" y="475.0" width="17.0" height="17.0" rx="3.0" fill="#2563EB" stroke="#FFFFFF" stroke-width="1.0"/><rect x="753.0" y="495.0" width="17.0" height="17.0" rx="3.0" fill="#2563EB" stroke="#FFFFFF" stroke-width="1.0"/><rect x="773.0" y="495.0" width="17.0" height="17.0" rx="3.0" fill="#2563EB" stroke="#FFFFFF" stroke-width="1.0"/><rect x="793.0" y="495.0" width="17.0" height="17.0" rx="3.0" fill="#2563EB" stroke="#FFFFFF" stroke-width="1.0"/><rect x="813.0" y="495.0" width="17.0" height="17.0" rx="3.0" fill="#2563EB" stroke="#FFFFFF" stroke-width="1.0"/><rect x="833.0" y="495.0" width="17.0" height="17.0" rx="3.0" fill="#D97706" stroke="#FFFFFF" stroke-width="1.0"/><rect x="853.0" y="495.0" width="17.0" height="17.0" rx="3.0" fill="#D97706" stroke="#FFFFFF" stroke-width="1.0"/><rect x="873.0" y="495.0" width="17.0" height="17.0" rx="3.0" fill="#2563EB" stroke="#FFFFFF" stroke-width="1.0"/><rect x="893.0" y="495.0" width="17.0" height="17.0" rx="3.0" fill="#2563EB" stroke="#FFFFFF" stroke-width="1.0"/><rect x="913.0" y="495.0" width="17.0" height="17.0" rx="3.0" fill="#2563EB" stroke="#FFFFFF" stroke-width="1.0"/><rect x="933.0" y="495.0" width="17.0" height="17.0" rx="3.0" fill="#2563EB" stroke="#FFFFFF" stroke-width="1.0"/><rect x="753.0" y="515.0" width="17.0" height="17.0" rx="3.0" fill="#2563EB" stroke="#FFFFFF" stroke-width="1.0"/><rect x="773.0" y="515.0" width="17.0" height="17.0" rx="3.0" fill="#2563EB" stroke="#FFFFFF" stroke-width="1.0"/><rect x="793.0" y="515.0" width="17.0" height="17.0" rx="3.0" fill="#2563EB" stroke="#FFFFFF" stroke-width="1.0"/><rect x="813.0" y="515.0" width="17.0" height="17.0" rx="3.0" fill="#2563EB" stroke="#FFFFFF" stroke-width="1.0"/><rect x="833.0" y="515.0" width="17.0" height="17.0" rx="3.0" fill="#D97706" stroke="#FFFFFF" stroke-width="1.0"/><rect x="853.0" y="515.0" width="17.0" height="17.0" rx="3.0" fill="#D97706" stroke="#FFFFFF" stroke-width="1.0"/><rect x="873.0" y="515.0" width="17.0" height="17.0" rx="3.0" fill="#2563EB" stroke="#FFFFFF" stroke-width="1.0"/><rect x="893.0" y="515.0" width="17.0" height="17.0" rx="3.0" fill="#2563EB" stroke="#FFFFFF" stroke-width="1.0"/><rect x="913.0" y="515.0" width="17.0" height="17.0" rx="3.0" fill="#2563EB" stroke="#FFFFFF" stroke-width="1.0"/><rect x="933.0" y="515.0" width="17.0" height="17.0" rx="3.0" fill="#2563EB" stroke="#FFFFFF" stroke-width="1.0"/><rect x="753.0" y="535.0" width="17.0" height="17.0" rx="3.0" fill="#2563EB" stroke="#FFFFFF" stroke-width="1.0"/><rect x="773.0" y="535.0" width="17.0" height="17.0" rx="3.0" fill="#2563EB" stroke="#FFFFFF" stroke-width="1.0"/><rect x="793.0" y="535.0" width="17.0" height="17.0" rx="3.0" fill="#D97706" stroke="#FFFFFF" stroke-width="1.0"/><rect x="813.0" y="535.0" width="17.0" height="17.0" rx="3.0" fill="#D97706" stroke="#FFFFFF" stroke-width="1.0"/><rect x="833.0" y="535.0" width="17.0" height="17.0" rx="3.0" fill="#D97706" stroke="#FFFFFF" stroke-width="1.0"/><rect x="853.0" y="535.0" width="17.0" height="17.0" rx="3.0" fill="#D97706" stroke="#FFFFFF" stroke-width="1.0"/><rect x="873.0" y="535.0" width="17.0" height="17.0" rx="3.0" fill="#D97706" stroke="#FFFFFF" stroke-width="1.0"/><rect x="893.0" y="535.0" width="17.0" height="17.0" rx="3.0" fill="#2563EB" stroke="#FFFFFF" stroke-width="1.0"/><rect x="913.0" y="535.0" width="17.0" height="17.0" rx="3.0" fill="#2563EB" stroke="#FFFFFF" stroke-width="1.0"/><rect x="933.0" y="535.0" width="17.0" height="17.0" rx="3.0" fill="#2563EB" stroke="#FFFFFF" stroke-width="1.0"/><rect x="753.0" y="555.0" width="17.0" height="17.0" rx="3.0" fill="#2563EB" stroke="#FFFFFF" stroke-width="1.0"/><rect x="773.0" y="555.0" width="17.0" height="17.0" rx="3.0" fill="#2563EB" stroke="#FFFFFF" stroke-width="1.0"/><rect x="793.0" y="555.0" width="17.0" height="17.0" rx="3.0" fill="#2563EB" stroke="#FFFFFF" stroke-width="1.0"/><rect x="813.0" y="555.0" width="17.0" height="17.0" rx="3.0" fill="#D97706" stroke="#FFFFFF" stroke-width="1.0"/><rect x="833.0" y="555.0" width="17.0" height="17.0" rx="3.0" fill="#D97706" stroke="#FFFFFF" stroke-width="1.0"/><rect x="853.0" y="555.0" width="17.0" height="17.0" rx="3.0" fill="#D97706" stroke="#FFFFFF" stroke-width="1.0"/><rect x="873.0" y="555.0" width="17.0" height="17.0" rx="3.0" fill="#D97706" stroke="#FFFFFF" stroke-width="1.0"/><rect x="893.0" y="555.0" width="17.0" height="17.0" rx="3.0" fill="#2563EB" stroke="#FFFFFF" stroke-width="1.0"/><rect x="913.0" y="555.0" width="17.0" height="17.0" rx="3.0" fill="#2563EB" stroke="#FFFFFF" stroke-width="1.0"/><rect x="933.0" y="555.0" width="17.0" height="17.0" rx="3.0" fill="#2563EB" stroke="#FFFFFF" stroke-width="1.0"/><text x="1045.0" y="505.0" fill="#D97706" font-size="17" font-weight="700" font-family="system-ui, -apple-system, sans-serif" text-anchor="start">More solid columns</text><text x="1045.0" y="533.0" fill="#556176" font-size="17" font-weight="500" font-family="system-ui, -apple-system, sans-serif" text-anchor="start">favor repeat runs.</text>
<rect x="170.0" y="630.0" width="1040.0" height="54.0" rx="13.0" fill="#CCFBF1" stroke="#0F766E" stroke-width="1.5"/>
<text x="690.0" y="665.0" fill="#0F766E" font-size="21" font-weight="750" font-family="system-ui, -apple-system, sans-serif" text-anchor="middle">same final pixels  •  different SIXEL byte stream</text>
</svg>
