<svg xmlns="http://www.w3.org/2000/svg" width="760" height="2250" viewBox="0 0 760 2250" role="img" aria-labelledby="figure-title figure-description">
<title id="figure-title">From color spans to emit sweeps</title>
<desc id="figure-description">Mobile explanation of the current libsixel node heuristic: nearby same-color runs become span nodes, the nodes are ordered by start and end columns, and a greedy scan packs them into non-overlapping emit sweeps separated by carriage returns.</desc>
<defs ><marker id="arrow-blue" viewBox="0 0 10 10" refX="9" refY="5" markerWidth="7" markerHeight="7" orient="auto-start-reverse"><path d="M 0 0 L 10 5 L 0 10 z" fill="context-stroke"/></marker><marker id="arrow-magenta" viewBox="0 0 10 10" refX="9" refY="5" markerWidth="7" markerHeight="7" orient="auto-start-reverse"><path d="M 0 0 L 10 5 L 0 10 z" fill="context-stroke"/></marker><marker id="arrow-gold" viewBox="0 0 10 10" refX="9" refY="5" markerWidth="7" markerHeight="7" orient="auto-start-reverse"><path d="M 0 0 L 10 5 L 0 10 z" fill="context-stroke"/></marker><filter id="card-shadow" x="-10%" y="-10%" width="120%" height="130%"><feDropShadow dx="0" dy="5" stdDeviation="7" flood-color="#172033" flood-opacity="0.10"/></filter></defs>
<rect x="0.0" y="0.0" width="760.0" height="2250.0" fill="#F8FAFC" stroke="none"/>
<text x="38.0" y="56.0" fill="#172033" font-size="36" font-weight="800" font-family="system-ui, -apple-system, sans-serif" text-anchor="start">From color spans to emit sweeps</text>
<text x="38.0" y="90.0" fill="#556176" font-size="18" font-weight="550" font-family="system-ui, -apple-system, sans-serif" text-anchor="start">The current libsixel node heuristic</text>
<rect x="55.0" y="125.0" width="650.0" height="545.0" rx="16.0" fill="#FFFFFF" stroke="#0F766E" stroke-width="1.5"/><rect x="55.0" y="125.0" width="7.0" height="545.0" rx="3.5" fill="#0F766E" stroke="none"/><text x="82.0" y="167.0" fill="#0F766E" font-size="22" font-weight="750" font-family="system-ui, -apple-system, sans-serif" text-anchor="start">1  Compose nodes from color maps</text>
<line x1="95.0" y1="205.0" x2="655.0" y2="205.0" stroke="#CBD5E1" stroke-width="1.0" stroke-linecap="round"/><line x1="95.0" y1="201.0" x2="95.0" y2="209.0" stroke="#CBD5E1" stroke-width="1.0" stroke-linecap="round"/><text x="95.0" y="227.0" fill="#556176" font-size="12" font-weight="550" font-family="system-ui, -apple-system, sans-serif" text-anchor="middle">0</text><line x1="135.0" y1="201.0" x2="135.0" y2="209.0" stroke="#CBD5E1" stroke-width="1.0" stroke-linecap="round"/><line x1="175.0" y1="201.0" x2="175.0" y2="209.0" stroke="#CBD5E1" stroke-width="1.0" stroke-linecap="round"/><text x="175.0" y="227.0" fill="#556176" font-size="12" font-weight="550" font-family="system-ui, -apple-system, sans-serif" text-anchor="middle">4</text><line x1="215.0" y1="201.0" x2="215.0" y2="209.0" stroke="#CBD5E1" stroke-width="1.0" stroke-linecap="round"/><line x1="255.0" y1="201.0" x2="255.0" y2="209.0" stroke="#CBD5E1" stroke-width="1.0" stroke-linecap="round"/><text x="255.0" y="227.0" fill="#556176" font-size="12" font-weight="550" font-family="system-ui, -apple-system, sans-serif" text-anchor="middle">8</text><line x1="295.0" y1="201.0" x2="295.0" y2="209.0" stroke="#CBD5E1" stroke-width="1.0" stroke-linecap="round"/><line x1="335.0" y1="201.0" x2="335.0" y2="209.0" stroke="#CBD5E1" stroke-width="1.0" stroke-linecap="round"/><text x="335.0" y="227.0" fill="#556176" font-size="12" font-weight="550" font-family="system-ui, -apple-system, sans-serif" text-anchor="middle">12</text><line x1="375.0" y1="201.0" x2="375.0" y2="209.0" stroke="#CBD5E1" stroke-width="1.0" stroke-linecap="round"/><line x1="415.0" y1="201.0" x2="415.0" y2="209.0" stroke="#CBD5E1" stroke-width="1.0" stroke-linecap="round"/><text x="415.0" y="227.0" fill="#556176" font-size="12" font-weight="550" font-family="system-ui, -apple-system, sans-serif" text-anchor="middle">16</text><line x1="455.0" y1="201.0" x2="455.0" y2="209.0" stroke="#CBD5E1" stroke-width="1.0" stroke-linecap="round"/><line x1="495.0" y1="201.0" x2="495.0" y2="209.0" stroke="#CBD5E1" stroke-width="1.0" stroke-linecap="round"/><text x="495.0" y="227.0" fill="#556176" font-size="12" font-weight="550" font-family="system-ui, -apple-system, sans-serif" text-anchor="middle">20</text><line x1="535.0" y1="201.0" x2="535.0" y2="209.0" stroke="#CBD5E1" stroke-width="1.0" stroke-linecap="round"/><line x1="575.0" y1="201.0" x2="575.0" y2="209.0" stroke="#CBD5E1" stroke-width="1.0" stroke-linecap="round"/><text x="575.0" y="227.0" fill="#556176" font-size="12" font-weight="550" font-family="system-ui, -apple-system, sans-serif" text-anchor="middle">24</text><line x1="615.0" y1="201.0" x2="615.0" y2="209.0" stroke="#CBD5E1" stroke-width="1.0" stroke-linecap="round"/><line x1="655.0" y1="201.0" x2="655.0" y2="209.0" stroke="#CBD5E1" stroke-width="1.0" stroke-linecap="round"/><text x="655.0" y="227.0" fill="#556176" font-size="12" font-weight="550" font-family="system-ui, -apple-system, sans-serif" text-anchor="middle">28</text>
<rect x="95.0" y="235.0" width="18.0" height="18.0" rx="2.0" fill="#D97706" stroke="#FFFFFF" stroke-width="0.8"/><rect x="115.0" y="235.0" width="18.0" height="18.0" rx="2.0" fill="#D97706" stroke="#FFFFFF" stroke-width="0.8"/><rect x="135.0" y="235.0" width="18.0" height="18.0" rx="2.0" fill="#D97706" stroke="#FFFFFF" stroke-width="0.8"/><rect x="155.0" y="235.0" width="18.0" height="18.0" rx="2.0" fill="#D97706" stroke="#FFFFFF" stroke-width="0.8"/><rect x="175.0" y="235.0" width="18.0" height="18.0" rx="2.0" fill="#FFFFFF" stroke="#CBD5E1" stroke-width="0.8"/><rect x="195.0" y="235.0" width="18.0" height="18.0" rx="2.0" fill="#FFFFFF" stroke="#CBD5E1" stroke-width="0.8"/><rect x="215.0" y="235.0" width="18.0" height="18.0" rx="2.0" fill="#FFFFFF" stroke="#CBD5E1" stroke-width="0.8"/><rect x="235.0" y="235.0" width="18.0" height="18.0" rx="2.0" fill="#FFFFFF" stroke="#CBD5E1" stroke-width="0.8"/><rect x="255.0" y="235.0" width="18.0" height="18.0" rx="2.0" fill="#FFFFFF" stroke="#CBD5E1" stroke-width="0.8"/><rect x="275.0" y="235.0" width="18.0" height="18.0" rx="2.0" fill="#FFFFFF" stroke="#CBD5E1" stroke-width="0.8"/><rect x="295.0" y="235.0" width="18.0" height="18.0" rx="2.0" fill="#D97706" stroke="#FFFFFF" stroke-width="0.8"/><rect x="315.0" y="235.0" width="18.0" height="18.0" rx="2.0" fill="#D97706" stroke="#FFFFFF" stroke-width="0.8"/><rect x="335.0" y="235.0" width="18.0" height="18.0" rx="2.0" fill="#D97706" stroke="#FFFFFF" stroke-width="0.8"/><rect x="355.0" y="235.0" width="18.0" height="18.0" rx="2.0" fill="#D97706" stroke="#FFFFFF" stroke-width="0.8"/><rect x="375.0" y="235.0" width="18.0" height="18.0" rx="2.0" fill="#FFFFFF" stroke="#CBD5E1" stroke-width="0.8"/><rect x="395.0" y="235.0" width="18.0" height="18.0" rx="2.0" fill="#FFFFFF" stroke="#CBD5E1" stroke-width="0.8"/><rect x="415.0" y="235.0" width="18.0" height="18.0" rx="2.0" fill="#FFFFFF" stroke="#CBD5E1" stroke-width="0.8"/><rect x="435.0" y="235.0" width="18.0" height="18.0" rx="2.0" fill="#FFFFFF" stroke="#CBD5E1" stroke-width="0.8"/><rect x="455.0" y="235.0" width="18.0" height="18.0" rx="2.0" fill="#FFFFFF" stroke="#CBD5E1" stroke-width="0.8"/><rect x="475.0" y="235.0" width="18.0" height="18.0" rx="2.0" fill="#FFFFFF" stroke="#CBD5E1" stroke-width="0.8"/><rect x="495.0" y="235.0" width="18.0" height="18.0" rx="2.0" fill="#FFFFFF" stroke="#CBD5E1" stroke-width="0.8"/><rect x="515.0" y="235.0" width="18.0" height="18.0" rx="2.0" fill="#FFFFFF" stroke="#CBD5E1" stroke-width="0.8"/><rect x="535.0" y="235.0" width="18.0" height="18.0" rx="2.0" fill="#FFFFFF" stroke="#CBD5E1" stroke-width="0.8"/><rect x="555.0" y="235.0" width="18.0" height="18.0" rx="2.0" fill="#FFFFFF" stroke="#CBD5E1" stroke-width="0.8"/><rect x="575.0" y="235.0" width="18.0" height="18.0" rx="2.0" fill="#FFFFFF" stroke="#CBD5E1" stroke-width="0.8"/><rect x="595.0" y="235.0" width="18.0" height="18.0" rx="2.0" fill="#FFFFFF" stroke="#CBD5E1" stroke-width="0.8"/><rect x="615.0" y="235.0" width="18.0" height="18.0" rx="2.0" fill="#FFFFFF" stroke="#CBD5E1" stroke-width="0.8"/><rect x="635.0" y="235.0" width="18.0" height="18.0" rx="2.0" fill="#FFFFFF" stroke="#CBD5E1" stroke-width="0.8"/><rect x="95.0" y="255.0" width="18.0" height="18.0" rx="2.0" fill="#FFFFFF" stroke="#CBD5E1" stroke-width="0.8"/><rect x="115.0" y="255.0" width="18.0" height="18.0" rx="2.0" fill="#FFFFFF" stroke="#CBD5E1" stroke-width="0.8"/><rect x="135.0" y="255.0" width="18.0" height="18.0" rx="2.0" fill="#2563EB" stroke="#FFFFFF" stroke-width="0.8"/><rect x="155.0" y="255.0" width="18.0" height="18.0" rx="2.0" fill="#2563EB" stroke="#FFFFFF" stroke-width="0.8"/><rect x="175.0" y="255.0" width="18.0" height="18.0" rx="2.0" fill="#2563EB" stroke="#FFFFFF" stroke-width="0.8"/><rect x="195.0" y="255.0" width="18.0" height="18.0" rx="2.0" fill="#2563EB" stroke="#FFFFFF" stroke-width="0.8"/><rect x="215.0" y="255.0" width="18.0" height="18.0" rx="2.0" fill="#2563EB" stroke="#FFFFFF" stroke-width="0.8"/><rect x="235.0" y="255.0" width="18.0" height="18.0" rx="2.0" fill="#2563EB" stroke="#FFFFFF" stroke-width="0.8"/><rect x="255.0" y="255.0" width="18.0" height="18.0" rx="2.0" fill="#FFFFFF" stroke="#CBD5E1" stroke-width="0.8"/><rect x="275.0" y="255.0" width="18.0" height="18.0" rx="2.0" fill="#FFFFFF" stroke="#CBD5E1" stroke-width="0.8"/><rect x="295.0" y="255.0" width="18.0" height="18.0" rx="2.0" fill="#FFFFFF" stroke="#CBD5E1" stroke-width="0.8"/><rect x="315.0" y="255.0" width="18.0" height="18.0" rx="2.0" fill="#FFFFFF" stroke="#CBD5E1" stroke-width="0.8"/><rect x="335.0" y="255.0" width="18.0" height="18.0" rx="2.0" fill="#FFFFFF" stroke="#CBD5E1" stroke-width="0.8"/><rect x="355.0" y="255.0" width="18.0" height="18.0" rx="2.0" fill="#FFFFFF" stroke="#CBD5E1" stroke-width="0.8"/><rect x="375.0" y="255.0" width="18.0" height="18.0" rx="2.0" fill="#FFFFFF" stroke="#CBD5E1" stroke-width="0.8"/><rect x="395.0" y="255.0" width="18.0" height="18.0" rx="2.0" fill="#FFFFFF" stroke="#CBD5E1" stroke-width="0.8"/><rect x="415.0" y="255.0" width="18.0" height="18.0" rx="2.0" fill="#FFFFFF" stroke="#CBD5E1" stroke-width="0.8"/><rect x="435.0" y="255.0" width="18.0" height="18.0" rx="2.0" fill="#FFFFFF" stroke="#CBD5E1" stroke-width="0.8"/><rect x="455.0" y="255.0" width="18.0" height="18.0" rx="2.0" fill="#FFFFFF" stroke="#CBD5E1" stroke-width="0.8"/><rect x="475.0" y="255.0" width="18.0" height="18.0" rx="2.0" fill="#FFFFFF" stroke="#CBD5E1" stroke-width="0.8"/><rect x="495.0" y="255.0" width="18.0" height="18.0" rx="2.0" fill="#FFFFFF" stroke="#CBD5E1" stroke-width="0.8"/><rect x="515.0" y="255.0" width="18.0" height="18.0" rx="2.0" fill="#FFFFFF" stroke="#CBD5E1" stroke-width="0.8"/><rect x="535.0" y="255.0" width="18.0" height="18.0" rx="2.0" fill="#FFFFFF" stroke="#CBD5E1" stroke-width="0.8"/><rect x="555.0" y="255.0" width="18.0" height="18.0" rx="2.0" fill="#FFFFFF" stroke="#CBD5E1" stroke-width="0.8"/><rect x="575.0" y="255.0" width="18.0" height="18.0" rx="2.0" fill="#FFFFFF" stroke="#CBD5E1" stroke-width="0.8"/><rect x="595.0" y="255.0" width="18.0" height="18.0" rx="2.0" fill="#FFFFFF" stroke="#CBD5E1" stroke-width="0.8"/><rect x="615.0" y="255.0" width="18.0" height="18.0" rx="2.0" fill="#FFFFFF" stroke="#CBD5E1" stroke-width="0.8"/><rect x="635.0" y="255.0" width="18.0" height="18.0" rx="2.0" fill="#FFFFFF" stroke="#CBD5E1" stroke-width="0.8"/><rect x="95.0" y="275.0" width="18.0" height="18.0" rx="2.0" fill="#FFFFFF" stroke="#CBD5E1" stroke-width="0.8"/><rect x="115.0" y="275.0" width="18.0" height="18.0" rx="2.0" fill="#FFFFFF" stroke="#CBD5E1" stroke-width="0.8"/><rect x="135.0" y="275.0" width="18.0" height="18.0" rx="2.0" fill="#FFFFFF" stroke="#CBD5E1" stroke-width="0.8"/><rect x="155.0" y="275.0" width="18.0" height="18.0" rx="2.0" fill="#FFFFFF" stroke="#CBD5E1" stroke-width="0.8"/><rect x="175.0" y="275.0" width="18.0" height="18.0" rx="2.0" fill="#FFFFFF" stroke="#CBD5E1" stroke-width="0.8"/><rect x="195.0" y="275.0" width="18.0" height="18.0" rx="2.0" fill="#FFFFFF" stroke="#CBD5E1" stroke-width="0.8"/><rect x="215.0" y="275.0" width="18.0" height="18.0" rx="2.0" fill="#FFFFFF" stroke="#CBD5E1" stroke-width="0.8"/><rect x="235.0" y="275.0" width="18.0" height="18.0" rx="2.0" fill="#FFFFFF" stroke="#CBD5E1" stroke-width="0.8"/><rect x="255.0" y="275.0" width="18.0" height="18.0" rx="2.0" fill="#FFFFFF" stroke="#CBD5E1" stroke-width="0.8"/><rect x="275.0" y="275.0" width="18.0" height="18.0" rx="2.0" fill="#FFFFFF" stroke="#CBD5E1" stroke-width="0.8"/><rect x="295.0" y="275.0" width="18.0" height="18.0" rx="2.0" fill="#FFFFFF" stroke="#CBD5E1" stroke-width="0.8"/><rect x="315.0" y="275.0" width="18.0" height="18.0" rx="2.0" fill="#FFFFFF" stroke="#CBD5E1" stroke-width="0.8"/><rect x="335.0" y="275.0" width="18.0" height="18.0" rx="2.0" fill="#FFFFFF" stroke="#CBD5E1" stroke-width="0.8"/><rect x="355.0" y="275.0" width="18.0" height="18.0" rx="2.0" fill="#FFFFFF" stroke="#CBD5E1" stroke-width="0.8"/><rect x="375.0" y="275.0" width="18.0" height="18.0" rx="2.0" fill="#0F766E" stroke="#FFFFFF" stroke-width="0.8"/><rect x="395.0" y="275.0" width="18.0" height="18.0" rx="2.0" fill="#0F766E" stroke="#FFFFFF" stroke-width="0.8"/><rect x="415.0" y="275.0" width="18.0" height="18.0" rx="2.0" fill="#0F766E" stroke="#FFFFFF" stroke-width="0.8"/><rect x="435.0" y="275.0" width="18.0" height="18.0" rx="2.0" fill="#0F766E" stroke="#FFFFFF" stroke-width="0.8"/><rect x="455.0" y="275.0" width="18.0" height="18.0" rx="2.0" fill="#0F766E" stroke="#FFFFFF" stroke-width="0.8"/><rect x="475.0" y="275.0" width="18.0" height="18.0" rx="2.0" fill="#0F766E" stroke="#FFFFFF" stroke-width="0.8"/><rect x="495.0" y="275.0" width="18.0" height="18.0" rx="2.0" fill="#FFFFFF" stroke="#CBD5E1" stroke-width="0.8"/><rect x="515.0" y="275.0" width="18.0" height="18.0" rx="2.0" fill="#FFFFFF" stroke="#CBD5E1" stroke-width="0.8"/><rect x="535.0" y="275.0" width="18.0" height="18.0" rx="2.0" fill="#FFFFFF" stroke="#CBD5E1" stroke-width="0.8"/><rect x="555.0" y="275.0" width="18.0" height="18.0" rx="2.0" fill="#FFFFFF" stroke="#CBD5E1" stroke-width="0.8"/><rect x="575.0" y="275.0" width="18.0" height="18.0" rx="2.0" fill="#FFFFFF" stroke="#CBD5E1" stroke-width="0.8"/><rect x="595.0" y="275.0" width="18.0" height="18.0" rx="2.0" fill="#FFFFFF" stroke="#CBD5E1" stroke-width="0.8"/><rect x="615.0" y="275.0" width="18.0" height="18.0" rx="2.0" fill="#FFFFFF" stroke="#CBD5E1" stroke-width="0.8"/><rect x="635.0" y="275.0" width="18.0" height="18.0" rx="2.0" fill="#FFFFFF" stroke="#CBD5E1" stroke-width="0.8"/><rect x="95.0" y="295.0" width="18.0" height="18.0" rx="2.0" fill="#FFFFFF" stroke="#CBD5E1" stroke-width="0.8"/><rect x="115.0" y="295.0" width="18.0" height="18.0" rx="2.0" fill="#FFFFFF" stroke="#CBD5E1" stroke-width="0.8"/><rect x="135.0" y="295.0" width="18.0" height="18.0" rx="2.0" fill="#FFFFFF" stroke="#CBD5E1" stroke-width="0.8"/><rect x="155.0" y="295.0" width="18.0" height="18.0" rx="2.0" fill="#FFFFFF" stroke="#CBD5E1" stroke-width="0.8"/><rect x="175.0" y="295.0" width="18.0" height="18.0" rx="2.0" fill="#FFFFFF" stroke="#CBD5E1" stroke-width="0.8"/><rect x="195.0" y="295.0" width="18.0" height="18.0" rx="2.0" fill="#FFFFFF" stroke="#CBD5E1" stroke-width="0.8"/><rect x="215.0" y="295.0" width="18.0" height="18.0" rx="2.0" fill="#FFFFFF" stroke="#CBD5E1" stroke-width="0.8"/><rect x="235.0" y="295.0" width="18.0" height="18.0" rx="2.0" fill="#FFFFFF" stroke="#CBD5E1" stroke-width="0.8"/><rect x="255.0" y="295.0" width="18.0" height="18.0" rx="2.0" fill="#FFFFFF" stroke="#CBD5E1" stroke-width="0.8"/><rect x="275.0" y="295.0" width="18.0" height="18.0" rx="2.0" fill="#FFFFFF" stroke="#CBD5E1" stroke-width="0.8"/><rect x="295.0" y="295.0" width="18.0" height="18.0" rx="2.0" fill="#FFFFFF" stroke="#CBD5E1" stroke-width="0.8"/><rect x="315.0" y="295.0" width="18.0" height="18.0" rx="2.0" fill="#FFFFFF" stroke="#CBD5E1" stroke-width="0.8"/><rect x="335.0" y="295.0" width="18.0" height="18.0" rx="2.0" fill="#FFFFFF" stroke="#CBD5E1" stroke-width="0.8"/><rect x="355.0" y="295.0" width="18.0" height="18.0" rx="2.0" fill="#FFFFFF" stroke="#CBD5E1" stroke-width="0.8"/><rect x="375.0" y="295.0" width="18.0" height="18.0" rx="2.0" fill="#FFFFFF" stroke="#CBD5E1" stroke-width="0.8"/><rect x="395.0" y="295.0" width="18.0" height="18.0" rx="2.0" fill="#FFFFFF" stroke="#CBD5E1" stroke-width="0.8"/><rect x="415.0" y="295.0" width="18.0" height="18.0" rx="2.0" fill="#FFFFFF" stroke="#CBD5E1" stroke-width="0.8"/><rect x="435.0" y="295.0" width="18.0" height="18.0" rx="2.0" fill="#BE185D" stroke="#FFFFFF" stroke-width="0.8"/><rect x="455.0" y="295.0" width="18.0" height="18.0" rx="2.0" fill="#BE185D" stroke="#FFFFFF" stroke-width="0.8"/><rect x="475.0" y="295.0" width="18.0" height="18.0" rx="2.0" fill="#BE185D" stroke="#FFFFFF" stroke-width="0.8"/><rect x="495.0" y="295.0" width="18.0" height="18.0" rx="2.0" fill="#BE185D" stroke="#FFFFFF" stroke-width="0.8"/><rect x="515.0" y="295.0" width="18.0" height="18.0" rx="2.0" fill="#BE185D" stroke="#FFFFFF" stroke-width="0.8"/><rect x="535.0" y="295.0" width="18.0" height="18.0" rx="2.0" fill="#BE185D" stroke="#FFFFFF" stroke-width="0.8"/><rect x="555.0" y="295.0" width="18.0" height="18.0" rx="2.0" fill="#BE185D" stroke="#FFFFFF" stroke-width="0.8"/><rect x="575.0" y="295.0" width="18.0" height="18.0" rx="2.0" fill="#BE185D" stroke="#FFFFFF" stroke-width="0.8"/><rect x="595.0" y="295.0" width="18.0" height="18.0" rx="2.0" fill="#BE185D" stroke="#FFFFFF" stroke-width="0.8"/><rect x="615.0" y="295.0" width="18.0" height="18.0" rx="2.0" fill="#FFFFFF" stroke="#CBD5E1" stroke-width="0.8"/><rect x="635.0" y="295.0" width="18.0" height="18.0" rx="2.0" fill="#FFFFFF" stroke="#CBD5E1" stroke-width="0.8"/><rect x="95.0" y="315.0" width="18.0" height="18.0" rx="2.0" fill="#FFFFFF" stroke="#CBD5E1" stroke-width="0.8"/><rect x="115.0" y="315.0" width="18.0" height="18.0" rx="2.0" fill="#FFFFFF" stroke="#CBD5E1" stroke-width="0.8"/><rect x="135.0" y="315.0" width="18.0" height="18.0" rx="2.0" fill="#FFFFFF" stroke="#CBD5E1" stroke-width="0.8"/><rect x="155.0" y="315.0" width="18.0" height="18.0" rx="2.0" fill="#FFFFFF" stroke="#CBD5E1" stroke-width="0.8"/><rect x="175.0" y="315.0" width="18.0" height="18.0" rx="2.0" fill="#FFFFFF" stroke="#CBD5E1" stroke-width="0.8"/><rect x="195.0" y="315.0" width="18.0" height="18.0" rx="2.0" fill="#FFFFFF" stroke="#CBD5E1" stroke-width="0.8"/><rect x="215.0" y="315.0" width="18.0" height="18.0" rx="2.0" fill="#FFFFFF" stroke="#CBD5E1" stroke-width="0.8"/><rect x="235.0" y="315.0" width="18.0" height="18.0" rx="2.0" fill="#FFFFFF" stroke="#CBD5E1" stroke-width="0.8"/><rect x="255.0" y="315.0" width="18.0" height="18.0" rx="2.0" fill="#FFFFFF" stroke="#CBD5E1" stroke-width="0.8"/><rect x="275.0" y="315.0" width="18.0" height="18.0" rx="2.0" fill="#FFFFFF" stroke="#CBD5E1" stroke-width="0.8"/><rect x="295.0" y="315.0" width="18.0" height="18.0" rx="2.0" fill="#FFFFFF" stroke="#CBD5E1" stroke-width="0.8"/><rect x="315.0" y="315.0" width="18.0" height="18.0" rx="2.0" fill="#FFFFFF" stroke="#CBD5E1" stroke-width="0.8"/><rect x="335.0" y="315.0" width="18.0" height="18.0" rx="2.0" fill="#FFFFFF" stroke="#CBD5E1" stroke-width="0.8"/><rect x="355.0" y="315.0" width="18.0" height="18.0" rx="2.0" fill="#FFFFFF" stroke="#CBD5E1" stroke-width="0.8"/><rect x="375.0" y="315.0" width="18.0" height="18.0" rx="2.0" fill="#FFFFFF" stroke="#CBD5E1" stroke-width="0.8"/><rect x="395.0" y="315.0" width="18.0" height="18.0" rx="2.0" fill="#FFFFFF" stroke="#CBD5E1" stroke-width="0.8"/><rect x="415.0" y="315.0" width="18.0" height="18.0" rx="2.0" fill="#FFFFFF" stroke="#CBD5E1" stroke-width="0.8"/><rect x="435.0" y="315.0" width="18.0" height="18.0" rx="2.0" fill="#FFFFFF" stroke="#CBD5E1" stroke-width="0.8"/><rect x="455.0" y="315.0" width="18.0" height="18.0" rx="2.0" fill="#FFFFFF" stroke="#CBD5E1" stroke-width="0.8"/><rect x="475.0" y="315.0" width="18.0" height="18.0" rx="2.0" fill="#FFFFFF" stroke="#CBD5E1" stroke-width="0.8"/><rect x="495.0" y="315.0" width="18.0" height="18.0" rx="2.0" fill="#FFFFFF" stroke="#CBD5E1" stroke-width="0.8"/><rect x="515.0" y="315.0" width="18.0" height="18.0" rx="2.0" fill="#FFFFFF" stroke="#CBD5E1" stroke-width="0.8"/><rect x="535.0" y="315.0" width="18.0" height="18.0" rx="2.0" fill="#FFFFFF" stroke="#CBD5E1" stroke-width="0.8"/><rect x="555.0" y="315.0" width="18.0" height="18.0" rx="2.0" fill="#FFFFFF" stroke="#CBD5E1" stroke-width="0.8"/><rect x="575.0" y="315.0" width="18.0" height="18.0" rx="2.0" fill="#FFFFFF" stroke="#CBD5E1" stroke-width="0.8"/><rect x="595.0" y="315.0" width="18.0" height="18.0" rx="2.0" fill="#FFFFFF" stroke="#CBD5E1" stroke-width="0.8"/><rect x="615.0" y="315.0" width="18.0" height="18.0" rx="2.0" fill="#FFFFFF" stroke="#CBD5E1" stroke-width="0.8"/><rect x="635.0" y="315.0" width="18.0" height="18.0" rx="2.0" fill="#FFFFFF" stroke="#CBD5E1" stroke-width="0.8"/><rect x="95.0" y="335.0" width="18.0" height="18.0" rx="2.0" fill="#FFFFFF" stroke="#CBD5E1" stroke-width="0.8"/><rect x="115.0" y="335.0" width="18.0" height="18.0" rx="2.0" fill="#FFFFFF" stroke="#CBD5E1" stroke-width="0.8"/><rect x="135.0" y="335.0" width="18.0" height="18.0" rx="2.0" fill="#FFFFFF" stroke="#CBD5E1" stroke-width="0.8"/><rect x="155.0" y="335.0" width="18.0" height="18.0" rx="2.0" fill="#FFFFFF" stroke="#CBD5E1" stroke-width="0.8"/><rect x="175.0" y="335.0" width="18.0" height="18.0" rx="2.0" fill="#FFFFFF" stroke="#CBD5E1" stroke-width="0.8"/><rect x="195.0" y="335.0" width="18.0" height="18.0" rx="2.0" fill="#FFFFFF" stroke="#CBD5E1" stroke-width="0.8"/><rect x="215.0" y="335.0" width="18.0" height="18.0" rx="2.0" fill="#FFFFFF" stroke="#CBD5E1" stroke-width="0.8"/><rect x="235.0" y="335.0" width="18.0" height="18.0" rx="2.0" fill="#FFFFFF" stroke="#CBD5E1" stroke-width="0.8"/><rect x="255.0" y="335.0" width="18.0" height="18.0" rx="2.0" fill="#FFFFFF" stroke="#CBD5E1" stroke-width="0.8"/><rect x="275.0" y="335.0" width="18.0" height="18.0" rx="2.0" fill="#FFFFFF" stroke="#CBD5E1" stroke-width="0.8"/><rect x="295.0" y="335.0" width="18.0" height="18.0" rx="2.0" fill="#FFFFFF" stroke="#CBD5E1" stroke-width="0.8"/><rect x="315.0" y="335.0" width="18.0" height="18.0" rx="2.0" fill="#FFFFFF" stroke="#CBD5E1" stroke-width="0.8"/><rect x="335.0" y="335.0" width="18.0" height="18.0" rx="2.0" fill="#FFFFFF" stroke="#CBD5E1" stroke-width="0.8"/><rect x="355.0" y="335.0" width="18.0" height="18.0" rx="2.0" fill="#FFFFFF" stroke="#CBD5E1" stroke-width="0.8"/><rect x="375.0" y="335.0" width="18.0" height="18.0" rx="2.0" fill="#FFFFFF" stroke="#CBD5E1" stroke-width="0.8"/><rect x="395.0" y="335.0" width="18.0" height="18.0" rx="2.0" fill="#FFFFFF" stroke="#CBD5E1" stroke-width="0.8"/><rect x="415.0" y="335.0" width="18.0" height="18.0" rx="2.0" fill="#FFFFFF" stroke="#CBD5E1" stroke-width="0.8"/><rect x="435.0" y="335.0" width="18.0" height="18.0" rx="2.0" fill="#FFFFFF" stroke="#CBD5E1" stroke-width="0.8"/><rect x="455.0" y="335.0" width="18.0" height="18.0" rx="2.0" fill="#FFFFFF" stroke="#CBD5E1" stroke-width="0.8"/><rect x="475.0" y="335.0" width="18.0" height="18.0" rx="2.0" fill="#FFFFFF" stroke="#CBD5E1" stroke-width="0.8"/><rect x="495.0" y="335.0" width="18.0" height="18.0" rx="2.0" fill="#FFFFFF" stroke="#CBD5E1" stroke-width="0.8"/><rect x="515.0" y="335.0" width="18.0" height="18.0" rx="2.0" fill="#FFFFFF" stroke="#CBD5E1" stroke-width="0.8"/><rect x="535.0" y="335.0" width="18.0" height="18.0" rx="2.0" fill="#FFFFFF" stroke="#CBD5E1" stroke-width="0.8"/><rect x="555.0" y="335.0" width="18.0" height="18.0" rx="2.0" fill="#FFFFFF" stroke="#CBD5E1" stroke-width="0.8"/><rect x="575.0" y="335.0" width="18.0" height="18.0" rx="2.0" fill="#FFFFFF" stroke="#CBD5E1" stroke-width="0.8"/><rect x="595.0" y="335.0" width="18.0" height="18.0" rx="2.0" fill="#FFFFFF" stroke="#CBD5E1" stroke-width="0.8"/><rect x="615.0" y="335.0" width="18.0" height="18.0" rx="2.0" fill="#FFFFFF" stroke="#CBD5E1" stroke-width="0.8"/><rect x="635.0" y="335.0" width="18.0" height="18.0" rx="2.0" fill="#FFFFFF" stroke="#CBD5E1" stroke-width="0.8"/>
<path d="M 95 375 V 395 H 375 V 375" fill="none" stroke="#D97706" stroke-width="2.0" stroke-linecap="round" stroke-linejoin="round"/>
<text x="235.0" y="423.0" fill="#D97706" font-size="15" font-weight="750" font-family="system-ui, -apple-system, sans-serif" text-anchor="middle">six blank columns</text>
<text x="235.0" y="450.0" fill="#556176" font-size="14" font-weight="600" font-family="system-ui, -apple-system, sans-serif" text-anchor="middle">still one #0 node [0,14)</text>
<rect x="440.0" y="382.0" width="155.0" height="38.0" rx="10.0" fill="#556176" stroke="none"/><text x="517.5" y="408.0" fill="#FFFFFF" font-size="15" font-weight="750" font-family="system-ui, -apple-system, sans-serif" text-anchor="middle">white = key color</text>
<text x="85.0" y="510.0" fill="#172033" font-size="15" font-weight="600" font-family="system-ui, -apple-system, sans-serif" text-anchor="start">Start at the first nonzero sx.</text><text x="85.0" y="541.0" fill="#172033" font-size="15" font-weight="600" font-family="system-ui, -apple-system, sans-serif" text-anchor="start">Bridge at most nine zero columns.</text><text x="85.0" y="572.0" fill="#172033" font-size="15" font-weight="600" font-family="system-ui, -apple-system, sans-serif" text-anchor="start">Split before a gap of ten; mx is exclusive.</text><text x="85.0" y="603.0" fill="#172033" font-size="15" font-weight="600" font-family="system-ui, -apple-system, sans-serif" text-anchor="start">A node can contain internal ? columns.</text>
<rect x="55.0" y="710.0" width="650.0" height="690.0" rx="16.0" fill="#DBEAFE" stroke="#2563EB" stroke-width="1.5"/><rect x="55.0" y="710.0" width="7.0" height="690.0" rx="3.5" fill="#2563EB" stroke="none"/><text x="82.0" y="752.0" fill="#2563EB" font-size="22" font-weight="750" font-family="system-ui, -apple-system, sans-serif" text-anchor="start">2  Order nodes by sx, then mx</text>
<text x="85.0" y="772.0" fill="#556176" font-size="15" font-weight="600" font-family="system-ui, -apple-system, sans-serif" text-anchor="start">The numbered list is the emitter&#x27;s scan order.</text>
<line x1="165.0" y1="815.0" x2="641.0" y2="815.0" stroke="#CBD5E1" stroke-width="1.0" stroke-linecap="round"/><line x1="165.0" y1="811.0" x2="165.0" y2="819.0" stroke="#CBD5E1" stroke-width="1.0" stroke-linecap="round"/><text x="165.0" y="837.0" fill="#556176" font-size="12" font-weight="550" font-family="system-ui, -apple-system, sans-serif" text-anchor="middle">0</text><line x1="199.0" y1="811.0" x2="199.0" y2="819.0" stroke="#CBD5E1" stroke-width="1.0" stroke-linecap="round"/><line x1="233.0" y1="811.0" x2="233.0" y2="819.0" stroke="#CBD5E1" stroke-width="1.0" stroke-linecap="round"/><text x="233.0" y="837.0" fill="#556176" font-size="12" font-weight="550" font-family="system-ui, -apple-system, sans-serif" text-anchor="middle">4</text><line x1="267.0" y1="811.0" x2="267.0" y2="819.0" stroke="#CBD5E1" stroke-width="1.0" stroke-linecap="round"/><line x1="301.0" y1="811.0" x2="301.0" y2="819.0" stroke="#CBD5E1" stroke-width="1.0" stroke-linecap="round"/><text x="301.0" y="837.0" fill="#556176" font-size="12" font-weight="550" font-family="system-ui, -apple-system, sans-serif" text-anchor="middle">8</text><line x1="335.0" y1="811.0" x2="335.0" y2="819.0" stroke="#CBD5E1" stroke-width="1.0" stroke-linecap="round"/><line x1="369.0" y1="811.0" x2="369.0" y2="819.0" stroke="#CBD5E1" stroke-width="1.0" stroke-linecap="round"/><text x="369.0" y="837.0" fill="#556176" font-size="12" font-weight="550" font-family="system-ui, -apple-system, sans-serif" text-anchor="middle">12</text><line x1="403.0" y1="811.0" x2="403.0" y2="819.0" stroke="#CBD5E1" stroke-width="1.0" stroke-linecap="round"/><line x1="437.0" y1="811.0" x2="437.0" y2="819.0" stroke="#CBD5E1" stroke-width="1.0" stroke-linecap="round"/><text x="437.0" y="837.0" fill="#556176" font-size="12" font-weight="550" font-family="system-ui, -apple-system, sans-serif" text-anchor="middle">16</text><line x1="471.0" y1="811.0" x2="471.0" y2="819.0" stroke="#CBD5E1" stroke-width="1.0" stroke-linecap="round"/><line x1="505.0" y1="811.0" x2="505.0" y2="819.0" stroke="#CBD5E1" stroke-width="1.0" stroke-linecap="round"/><text x="505.0" y="837.0" fill="#556176" font-size="12" font-weight="550" font-family="system-ui, -apple-system, sans-serif" text-anchor="middle">20</text><line x1="539.0" y1="811.0" x2="539.0" y2="819.0" stroke="#CBD5E1" stroke-width="1.0" stroke-linecap="round"/><line x1="573.0" y1="811.0" x2="573.0" y2="819.0" stroke="#CBD5E1" stroke-width="1.0" stroke-linecap="round"/><text x="573.0" y="837.0" fill="#556176" font-size="12" font-weight="550" font-family="system-ui, -apple-system, sans-serif" text-anchor="middle">24</text><line x1="607.0" y1="811.0" x2="607.0" y2="819.0" stroke="#CBD5E1" stroke-width="1.0" stroke-linecap="round"/><line x1="641.0" y1="811.0" x2="641.0" y2="819.0" stroke="#CBD5E1" stroke-width="1.0" stroke-linecap="round"/><text x="641.0" y="837.0" fill="#556176" font-size="12" font-weight="550" font-family="system-ui, -apple-system, sans-serif" text-anchor="middle">28</text>
<rect x="85.0" y="865.0" width="48.0" height="38.0" rx="10.0" fill="#D97706" stroke="none"/><text x="109.0" y="891.0" fill="#FFFFFF" font-size="15" font-weight="750" font-family="system-ui, -apple-system, sans-serif" text-anchor="middle">1</text>
<text x="85.0" y="931.0" fill="#172033" font-size="14" font-weight="650" font-family="system-ui, -apple-system, sans-serif" text-anchor="start">amber</text>
<rect x="165.0" y="865.0" width="238.0" height="38.0" rx="7.0" fill="#D97706" stroke="none"/><text x="284.0" y="888.0" fill="#FFFFFF" font-size="13" font-weight="750" font-family="system-ui, -apple-system, sans-serif" text-anchor="middle">#0 [0,14)</text>
<rect x="85.0" y="980.0" width="48.0" height="38.0" rx="10.0" fill="#2563EB" stroke="none"/><text x="109.0" y="1006.0" fill="#FFFFFF" font-size="15" font-weight="750" font-family="system-ui, -apple-system, sans-serif" text-anchor="middle">2</text>
<text x="85.0" y="1046.0" fill="#172033" font-size="14" font-weight="650" font-family="system-ui, -apple-system, sans-serif" text-anchor="start">blue</text>
<rect x="199.0" y="980.0" width="102.0" height="38.0" rx="7.0" fill="#2563EB" stroke="none"/><text x="250.0" y="1003.0" fill="#FFFFFF" font-size="13" font-weight="750" font-family="system-ui, -apple-system, sans-serif" text-anchor="middle">#2 [2,8)</text>
<rect x="85.0" y="1095.0" width="48.0" height="38.0" rx="10.0" fill="#0F766E" stroke="none"/><text x="109.0" y="1121.0" fill="#FFFFFF" font-size="15" font-weight="750" font-family="system-ui, -apple-system, sans-serif" text-anchor="middle">3</text>
<text x="85.0" y="1161.0" fill="#172033" font-size="14" font-weight="650" font-family="system-ui, -apple-system, sans-serif" text-anchor="start">green</text>
<rect x="403.0" y="1095.0" width="102.0" height="38.0" rx="7.0" fill="#0F766E" stroke="none"/><text x="454.0" y="1118.0" fill="#FFFFFF" font-size="13" font-weight="750" font-family="system-ui, -apple-system, sans-serif" text-anchor="middle">#1 [14,20)</text>
<rect x="85.0" y="1210.0" width="48.0" height="38.0" rx="10.0" fill="#BE185D" stroke="none"/><text x="109.0" y="1236.0" fill="#FFFFFF" font-size="15" font-weight="750" font-family="system-ui, -apple-system, sans-serif" text-anchor="middle">4</text>
<text x="85.0" y="1276.0" fill="#172033" font-size="14" font-weight="650" font-family="system-ui, -apple-system, sans-serif" text-anchor="start">pink</text>
<rect x="454.0" y="1210.0" width="153.0" height="38.0" rx="7.0" fill="#BE185D" stroke="none"/><text x="530.5" y="1233.0" fill="#FFFFFF" font-size="13" font-weight="750" font-family="system-ui, -apple-system, sans-serif" text-anchor="middle">#3 [17,26)</text>
<rect x="55.0" y="1440.0" width="650.0" height="650.0" rx="16.0" fill="#FCE7F3" stroke="#BE185D" stroke-width="1.5"/><rect x="55.0" y="1440.0" width="7.0" height="650.0" rx="3.5" fill="#BE185D" stroke="none"/><text x="82.0" y="1482.0" fill="#BE185D" font-size="22" font-weight="750" font-family="system-ui, -apple-system, sans-serif" text-anchor="start">3  Pack non-overlapping sweeps</text>
<text x="85.0" y="1502.0" fill="#556176" font-size="15" font-weight="600" font-family="system-ui, -apple-system, sans-serif" text-anchor="start">Take sx ≥ cursor in the current sweep.</text><text x="85.0" y="1531.0" fill="#556176" font-size="15" font-weight="600" font-family="system-ui, -apple-system, sans-serif" text-anchor="start">Skip overlaps without deleting them.</text><text x="85.0" y="1560.0" fill="#556176" font-size="15" font-weight="600" font-family="system-ui, -apple-system, sans-serif" text-anchor="start">Reset with $ and repeat until none remain.</text>
<line x1="165.0" y1="1620.0" x2="641.0" y2="1620.0" stroke="#CBD5E1" stroke-width="1.0" stroke-linecap="round"/><line x1="165.0" y1="1616.0" x2="165.0" y2="1624.0" stroke="#CBD5E1" stroke-width="1.0" stroke-linecap="round"/><text x="165.0" y="1642.0" fill="#556176" font-size="12" font-weight="550" font-family="system-ui, -apple-system, sans-serif" text-anchor="middle">0</text><line x1="199.0" y1="1616.0" x2="199.0" y2="1624.0" stroke="#CBD5E1" stroke-width="1.0" stroke-linecap="round"/><line x1="233.0" y1="1616.0" x2="233.0" y2="1624.0" stroke="#CBD5E1" stroke-width="1.0" stroke-linecap="round"/><text x="233.0" y="1642.0" fill="#556176" font-size="12" font-weight="550" font-family="system-ui, -apple-system, sans-serif" text-anchor="middle">4</text><line x1="267.0" y1="1616.0" x2="267.0" y2="1624.0" stroke="#CBD5E1" stroke-width="1.0" stroke-linecap="round"/><line x1="301.0" y1="1616.0" x2="301.0" y2="1624.0" stroke="#CBD5E1" stroke-width="1.0" stroke-linecap="round"/><text x="301.0" y="1642.0" fill="#556176" font-size="12" font-weight="550" font-family="system-ui, -apple-system, sans-serif" text-anchor="middle">8</text><line x1="335.0" y1="1616.0" x2="335.0" y2="1624.0" stroke="#CBD5E1" stroke-width="1.0" stroke-linecap="round"/><line x1="369.0" y1="1616.0" x2="369.0" y2="1624.0" stroke="#CBD5E1" stroke-width="1.0" stroke-linecap="round"/><text x="369.0" y="1642.0" fill="#556176" font-size="12" font-weight="550" font-family="system-ui, -apple-system, sans-serif" text-anchor="middle">12</text><line x1="403.0" y1="1616.0" x2="403.0" y2="1624.0" stroke="#CBD5E1" stroke-width="1.0" stroke-linecap="round"/><line x1="437.0" y1="1616.0" x2="437.0" y2="1624.0" stroke="#CBD5E1" stroke-width="1.0" stroke-linecap="round"/><text x="437.0" y="1642.0" fill="#556176" font-size="12" font-weight="550" font-family="system-ui, -apple-system, sans-serif" text-anchor="middle">16</text><line x1="471.0" y1="1616.0" x2="471.0" y2="1624.0" stroke="#CBD5E1" stroke-width="1.0" stroke-linecap="round"/><line x1="505.0" y1="1616.0" x2="505.0" y2="1624.0" stroke="#CBD5E1" stroke-width="1.0" stroke-linecap="round"/><text x="505.0" y="1642.0" fill="#556176" font-size="12" font-weight="550" font-family="system-ui, -apple-system, sans-serif" text-anchor="middle">20</text><line x1="539.0" y1="1616.0" x2="539.0" y2="1624.0" stroke="#CBD5E1" stroke-width="1.0" stroke-linecap="round"/><line x1="573.0" y1="1616.0" x2="573.0" y2="1624.0" stroke="#CBD5E1" stroke-width="1.0" stroke-linecap="round"/><text x="573.0" y="1642.0" fill="#556176" font-size="12" font-weight="550" font-family="system-ui, -apple-system, sans-serif" text-anchor="middle">24</text><line x1="607.0" y1="1616.0" x2="607.0" y2="1624.0" stroke="#CBD5E1" stroke-width="1.0" stroke-linecap="round"/><line x1="641.0" y1="1616.0" x2="641.0" y2="1624.0" stroke="#CBD5E1" stroke-width="1.0" stroke-linecap="round"/><text x="641.0" y="1642.0" fill="#556176" font-size="12" font-weight="550" font-family="system-ui, -apple-system, sans-serif" text-anchor="middle">28</text>
<text x="85.0" y="1688.0" fill="#BE185D" font-size="15" font-weight="750" font-family="system-ui, -apple-system, sans-serif" text-anchor="start">sweep 1</text>
<text x="85.0" y="1833.0" fill="#BE185D" font-size="15" font-weight="750" font-family="system-ui, -apple-system, sans-serif" text-anchor="start">sweep 2</text>
<rect x="85.0" y="1875.0" width="82.0" height="38.0" rx="10.0" fill="#BE185D" stroke="none"/><text x="126.0" y="1901.0" fill="#FFFFFF" font-size="15" font-weight="750" font-family="system-ui, -apple-system, sans-serif" text-anchor="middle">$ reset</text>
<rect x="165.0" y="1660.0" width="238.0" height="40.0" rx="7.0" fill="#D97706" stroke="none"/><text x="284.0" y="1683.0" fill="#FFFFFF" font-size="13" font-weight="750" font-family="system-ui, -apple-system, sans-serif" text-anchor="middle">#0 [0,14)</text>
<rect x="403.0" y="1660.0" width="102.0" height="40.0" rx="7.0" fill="#0F766E" stroke="none"/><text x="454.0" y="1683.0" fill="#FFFFFF" font-size="13" font-weight="750" font-family="system-ui, -apple-system, sans-serif" text-anchor="middle">#1 [14,20)</text>
<rect x="199.0" y="1805.0" width="102.0" height="40.0" rx="7.0" fill="#2563EB" stroke="none"/><text x="250.0" y="1828.0" fill="#FFFFFF" font-size="13" font-weight="750" font-family="system-ui, -apple-system, sans-serif" text-anchor="middle">#2 [2,8)</text>
<rect x="454.0" y="1805.0" width="153.0" height="40.0" rx="7.0" fill="#BE185D" stroke="none"/><text x="530.5" y="1828.0" fill="#FFFFFF" font-size="13" font-weight="750" font-family="system-ui, -apple-system, sans-serif" text-anchor="middle">#3 [17,26)</text>
<rect x="85.0" y="1970.0" width="590.0" height="50.0" rx="9.0" fill="#FFFFFF" stroke="#BE185D" stroke-width="1.2"/>
<text x="100.0" y="2002.0" fill="#172033" font-size="15" font-weight="700" font-family="ui-monospace, SFMono-Regular, Menlo, monospace" text-anchor="start">#0!4@!6?!4@#1!6C$#2??!6A#3!9?!9G</text>
<rect x="70.0" y="2135.0" width="620.0" height="78.0" rx="12.0" fill="#CCFBF1" stroke="#0F766E" stroke-width="1.2"/>
<text x="380.0" y="2168.0" fill="#0F766E" font-size="18" font-weight="800" font-family="system-ui, -apple-system, sans-serif" text-anchor="middle">Fewer $ resets and palette revisits</text>
<text x="380.0" y="2196.0" fill="#556176" font-size="14" font-weight="600" font-family="system-ui, -apple-system, sans-serif" text-anchor="middle">deterministic greedy heuristic, not an exhaustive optimum</text>
</svg>
